<svg xmlns="http://www.w3.org/2000/svg" version="1.0" viewBox="0 0 1920 743"><path d="M422.5 14c-28 5.1-46.9 11.5-61.2 21-14.6 9.6-17.7 14-28.6 39.5-5.4 12.9-6.9 18-10.3 34.5-4 19.8-.1 49.8 7.9 60.3 6.2 8.2 5.4 10.3-1.4 3.7-5.5-5.3-8.6-6.1-11.4-2.8-1.9 2.2-2.3 4.3-2.9 14.7-.6 11-.5 12.5 1.5 17.1 2.3 5.4 3.6 6.3 4.1 2.8.5-3.6 3.5-3.4 5.6.2 3.3 6 3.5 6.1 5.9 4 2.2-1.7 2.2-2 .8-6-2.5-7.2-1.5-11.1 2.3-9.1 3.6 1.9 4.4 4.5 3.1 9.6-1 3.8-.9 5.3.5 8.9 1 2.5 2.4 5 3.2 5.6 2 1.7 1.8 5.7-.4 6.4-1 .4-3.9 0-6.5-.8s-4.7-1-4.7-.5c0 1.6 4.4 3.8 9.8 5 6.3 1.3 7 4 1.2 5l-3.5.6 2.8 1.1c1.6.7 4.1 1.2 5.6 1.2 3 0 4.9 3.1 7.1 11.7 1 4 1.9 5.1 3.2 3.8.2-.3-.6-3.5-1.8-7.2-3.6-10.5-2.8-18.6 1-10.5 3 6.1 7.5 11.1 12.2 13.1 4.6 2.1 5 2.9 3.8 9-.5 2.5-.9 2.9-2 2-2.2-1.8-2.8 1.5-1.5 7.4.6 2.9 1.5 8.4 2 12.4.8 6.6 1.3 7.7 5.7 12.7 3.2 3.8 6 6 8.8 6.9 3.4 1.1 4.2 1.9 4.7 4.6.9 4.3 5.4 9.7 11.5 13.8 9.8 6.5 9.2 5.8 7 8.2-3.4 3.7-7.6 2.8-15.3-3.4-7.6-6.1-10.2-6.7-13.8-3-3.1 3-3.1 4.9.1 15.4 4.1 13.5 7.7 20.1 16.5 30 6.8 7.5 9.1 9.4 13.6 11.1 6.4 2.4 10.1 2.5 13.1.4l2.2-1.5-2.5-4.9c-1.4-2.7-2.5-5.4-2.5-6 0-2.4 5.2-.7 10.3 3.6 5.9 4.8 7.5 8.2 5.8 12.6-.9 2.3-1.3 2.4-6.4 2-4.9-.4-5.6-.2-6.2 1.7-1 3.3 2.3 11.7 6.5 16.6 4.9 5.7 7.4 12.3 6.7 17.5l-.5 4h76.4c42 0 76.4-.2 76.4-.5 0-1.1-9.6-4.7-19-7.2-5.8-1.5-13.2-4.4-19-7.6-5.2-2.8-14-7.5-19.4-10.4-10.9-5.8-15.7-9.7-18.9-15.8-2-3.7-2.2-6-2.8-34-.4-16.5-1.2-35-1.9-41-1.1-10.7-.7-21.6 1.1-26.2.5-1.3 3.4-5.6 6.4-9.7 8.2-10.8 16.5-33 16.5-43.8 0-3.1.4-3.8 1.9-3.8 1.1 0 2.3.4 2.6 1 1.1 1.7 4.1 1.1 6.4-1.4 3.6-3.8 3.8-9.8.7-18-3-7.8-3.3-11.8-1-14 3.5-3.6 4.7-.8 3.8 8.6-.5 4.9-.3 6.8.5 6.8 1.8 0 3.1-4.6 3.1-11 0-6.3-3.3-26.9-5-31.4-.9-2.5-1.4-2.8-4.3-2.2-4.4.8-12.2 9.2-13.2 14.3-.9 4.9-3.2 9.4-5.9 11.5-1.6 1.4-4.1 1.8-11.3 1.8H500v3c0 2.3.8 3.5 3.5 5.2 3.9 2.6 4.7 3.9 3.5 5.8-1.5 2.4-5.8.1-10.5-5.8-2.6-3.1-8.6-9.8-13.3-14.8-18.1-18.9-18.2-19.1-9.9-28.2 2.8-3.2 6-7.3 6.9-9 1.9-3.6 8-5.7 13.7-4.8 7.9 1.2 6.3 4.6-2.4 5.1-6 .4-11.5 2.1-11.5 3.6 0 .5 1.3.9 2.8.9 2 0 3.5.9 5 3l2.3 3h-3.8c-4.7 0-8.3.9-8.3 2.1 0 .5 1.4 1.6 3 2.4 4.1 2.1 8.9 1.1 15.2-3.1 5.4-3.7 8.5-4.3 9.4-1.9 1 2.4-1.4 4.4-7.4 6.1-3.9 1.2-5.1 1.9-4.1 2.5.8.5 2.4.9 3.5.9 1.8 0 3.4 1.7 3.4 3.5 0 .2-3.5.6-7.8 1-8.4.7-11.9 1.9-8.6 2.8 5.4 1.5 9.2 1.8 15.1 1.2 6.1-.6 6.4-.8 7-3.6.3-1.6 1.4-3.4 2.4-4 1.4-.7 1.9-2.1 1.9-5.6v-4.6l11.8.6c6.4.4 12.7 1 13.8 1.3 1.8.5 2.5-.3 4.7-5.8 3.6-9.1 7.7-23.6 7.7-27.5 0-1.7-.7-5.8-1.5-9-1.1-4.1-1.5-10.2-1.3-21.3.2-17.3-1-23.6-5.9-30.6-1.5-2.2-9.9-10.8-18.5-19.2-14.3-13.8-16.5-15.5-25-19.6-14.8-7.1-23.1-8.8-44.8-9.2-15.2-.3-20.5 0-29.5 1.6zm-26.1 37.4c2.3 2.5 6.6 5.8 9.6 7.4 8.7 4.6 9.4 9.8 1.8 13.2-6.1 2.8-7.5 2.5-9.2-1.5-1.9-4.5-4.4-4.6-12.1-.5-10.5 5.5-15 10.5-16.1 17.6-1.4 9.4 2.2 10.7 26.9 10.3l18.2-.3 10.4 3.7c5.7 2 11 4.2 11.6 4.7.7.6 1.3 3.5 1.3 6.5 0 3.1.3 7.4.7 9.7l.7 4.1 2.7-5.4c2.1-4.3 3.1-5.4 5-5.4 2.4 0 2.4 0 2.5 11.5l.1 11.5-3.7 1.9c-3.1 1.7-4 1.8-6.3.8-2.3-1.1-2.6-1.7-2-4 2.4-9.4 1-14.1-2-6.8-2.5 5.9-6.8 6.1-13.9.8-7.8-5.9-10.8-6.6-26.4-5.7-17.7.9-20.7 2.3-16.4 7.5 1.6 2 3.2 2.4 13.3 3.2 11.7.9 13.9 1.8 13.9 5.7 0 1.3-1.4 1.6-7.3 1.6-7.2.1-15.1 2-14.2 3.5.8 1.4 5.8 1.8 8.2.7 2.9-1.3 3.7-.5 3.8 4 0 3.1.4 3.8 3 4.6 2.3.8 4.4.5 9.7-1.3 7-2.4 9.9-2 6.3.7-1.1.8-5 3-8.8 4.8-9.1 4.5-16.9 10.3-16.5 12.4.4 1.8 6.1 2.6 11.6 1.6 4.2-.8 12-7.8 17.3-15.7 3.7-5.4 7.3-8.8 9.2-8.8.5 0 .8 3.9.5 8.7-.3 6.7-1 10.1-3 14.4l-2.6 5.6-7.8.8c-6.5.6-8.5 1.2-12.6 4-9.5 6.5-26.3 11.3-33.3 9.4-6.7-1.8-11.4-4.8-17.1-10.6-7.5-7.8-7.3-12.7.6-15.3 5.4-1.8 6-3 1.5-3s-3.9-1.1 2.6-4.6c2.7-1.5 4.8-3.2 4.6-3.8-.7-2-6.6-3-9.2-1.6-1.3.7-3.1 1-3.9.7-1.1-.5-2.4.6-4.1 3.4-3.5 5.4-4.9 4.2-4.1-3.5 1.3-12.7 3.3-24.2 4.5-26.4 1.1-2 .9-2.9-1.3-6.7-3.3-5.6-3.3-6.8.4-11.9 2.3-3.1 3.2-5.8 3.8-10.9.5-4.1 1.5-7.4 2.5-8.5 1.6-1.5 1.7-1.4 1.7 2.1 0 2 .4 3.7.8 3.7.5 0 3.5-2.4 6.8-5.4 4.5-4 6-6.1 6.2-8.4.1-1.6.9-4.7 1.8-6.7 1.8-4.3 1-5.5-3.7-5.5-6 0-3.9-6.7 3.8-12.3 7.3-5.3 17.9-10.4 22.2-10.6.8-.1 3.3 1.9 5.5 4.3zm76.4 51c2.9 1.5 6.7 7.7 9.7 15.8 1.1 3 2.5 5 3.9 5.4 1.9.7 1.9.8-.9 1.7-1.6.5-6.5 3.4-10.7 6.3-4.6 3.2-9.6 5.8-12.4 6.4-4.2 1-5 .9-6.8-.9-1.7-1.7-1.8-2.4-.8-4.6 1.6-3.4 1.5-4.5-.3-4.5-1.9 0-2-5.8-.1-10.4 1.6-3.9 8.2-13.6 10.4-15.4 2.1-1.6 4.7-1.5 8 .2zm-22.6 65.4c.7 6.6 1.8 8.7 4.7 9.7 2.8.9 4.1 5 4.1 13v7.4l-3.7-1.6c-3.3-1.3-5-1.4-12.1-.4-7.9 1.1-8.5 1.1-12.3-1.1-3.6-2-4.3-2.1-7.2-.9-1.8.8-4.8 1.4-6.7 1.5-2.9.1-3.6-.3-3.8-2.2-.6-4.2 2.4-6.2 9.3-6.2 6.6 0 7.5-.6 7.5-5.2 0-1.8.4-2 4.1-1.4 3.7.6 4.4.3 7.5-2.8 4.1-4.1 4.2-5.3.8-6.2-1.9-.5-2.3-1.1-1.8-2.3.4-.9.7-2.7.7-4.1-.1-3.1 1.3-4.1 5.2-3.8 2.9.3 3 .5 3.7 6.6zM411 202.4c2.3 2.9 7.5 3.8 11.5 2.1 2.1-.8 4.9-1.5 6.4-1.5 3.4 0 12.1 4.1 14.5 6.9l1.9 2.1h-3.6c-3.1 0-3.7.4-4.6 3.3-1.6 4.8-.6 6.4 4.8 7.7 5.4 1.3 7.9.6 14.2-4 4.4-3.2 6.8-3.7 10-2 3.6 2 6.7 11 3.7 11-.7 0-3.2-.5-5.5-1-3.5-.8-5.5-.6-12.4 1.7-7.9 2.5-8.4 2.5-11.2 1-3.5-2.1-8.3-2.1-11.7-.2-1.4.8-5 1.5-8 1.5s-8 .7-11 1.5c-6.8 1.8-11 1.9-11 .2 0-.6.9-2.7 2.1-4.6 1.1-1.8 1.8-3.5 1.5-3.8-1-1-9.6 8.1-11.3 11.8-1.1 2.5-2.6 4.2-4 4.5-2.4.6-3.1 2.8-1.3 3.9 1.6 1 1.2 5.1-.7 6.6-1.5 1.3-1.6 1.1-1-2 .5-2.5.3-3.9-1-5.3-1.5-1.7-1.5-2 1-4.6 1.5-1.5 3.8-6.1 5.2-10.2 3.6-10.7 15.7-28 19.5-28 .4 0 1.3.7 2 1.4zm31.4 39.5c.8.7 1.8 2.8 2.2 4.7.3 1.8 1.2 3.8 2 4.5 1.1.9 1.5.3 2-3 1-6.3 2.1-7.3 7.2-6 2.3.7 4.2 1.7 4.2 2.3 0 .6.3 2.1.6 3.2.5 1.8.2 2.1-1.8 1.7-2.8-.5-8 1.6-12.1 4.9l-2.7 2.2-6.3-3.2c-4.1-2.1-7.6-3.2-10.5-3.2-6.3 0-13.1 3.2-13.2 6.2 0 .4 1.6 1.4 3.5 2.2 4.8 2.1 4.4 3.9-1.5 6-4.3 1.5-4.8 2-4 3.6 1 1.9 8.6 6 11 6 .8 0 4.4-1.6 8.1-3.5 7.4-3.8 10.8-4.3 14.3-2 2.1 1.4 2.6 1.4 5.4-.2 2.5-1.4 3.4-1.5 5.6-.5 3.3 1.5 3.3 3.2.1 6.2-1.4 1.3-2.5 2.8-2.5 3.3s-.8 2.5-1.7 4.4c-1.6 3.5-1.6 3.6.6 5.4 1.2 1 4.5 2.1 7.2 2.5 4.3.6 4.8.9 3.7 2.2-3.5 4.2-12.2 5.2-27.9 3.1-11.2-1.5-14.1-2.9-17.3-8.8-2.4-4.5-4.8-6.9-15.5-15.9-7.4-6.2-15.7-6.6-18.4-.9-1.8 3.7-1.1 5.4 3.5 9.1 5.1 4 2.6 3.1-5.2-1.9-8.5-5.6-9.6-7.3-8.1-12.9.6-2.2 1.2-5.9 1.3-8.1.3-3.9.3-3.9 1.6-1.6 1 1.7 1.1 2.6.3 3.4-3.8 3.8 1.8 4.9 10 2 3.9-1.4 4.9-2.2 4.9-4 0-1.3 1.1-3.3 2.4-4.4 1.9-1.6 2.4-2.8 2-4.9-.5-2.3-.1-2.9 2.8-4.4 2.8-1.4 5.9-1.6 21.9-1.4 13.6.3 19.1.7 20.3 1.7zm-64.7 6.8c-.3 1-.5.4-.5-1.2 0-1.7.2-2.4.5-1.8.2.7.2 2.1 0 3zM483 294.4c0 .9-9.7 6.3-17 9.5-7.2 3.2-8 3.3-19 3.2-11-.1-11.8-.3-18.6-3.6-3.9-1.9-7.7-3.5-8.4-3.5-.7 0-1.1-.3-.8-.6.3-.3 4.6.4 9.4 1.6 16 3.8 31.8 2.4 47.9-4.4 6.8-2.8 6.5-2.7 6.5-2.2zM573 37.3c0 1.6 7.4 15 10.8 19.5 2.2 2.9 4.3 6.8 4.6 8.7.4 1.9 2 6.6 3.6 10.6 4.8 11.6 4.4 12.7-6.5 14.9-8.3 1.7-8.9 2.3-6.5 7.1 3.1 5.9 4.9 6.4 11.4 2.9 10.9-5.7 10.6-5.7 22.6 7.5 8.7 9.6 14.8 18 19.7 27.5.4.8 2.8 4.1 5.3 7.2 3 3.9 4.8 5.4 5.5 4.7.5-.6 1-5.5.9-11.2-.1-13-4.9-33-8.7-36.2-1.3-1.1-4.5-3.7-7.1-5.8l-4.6-3.8 4.4-3.4c2.4-1.8 5.1-3.5 6-3.7 4.8-.9-.9-4-7.4-3.9-6.4.2-8.7-.9-12.4-5.6-3.1-3.9-3.6-5.4-3.6-9.7 0-6.6-2.3-10.4-10-16-7-5.2-28-13.7-28-11.3zM677 67.3c0 2.1 6.9 14.7 10.5 19.2 1.8 2.2 3.6 5.6 4 7.5.4 1.9 2.2 7.2 4.1 11.8 1.9 4.5 3.4 8.9 3.4 9.7 0 1.9-4.1 3.9-11.3 5.4-3.2.7-6.1 1.9-6.4 2.7-.8 2.1 4.4 9.4 6.6 9.4 1 0 4.3-1.4 7.4-3 9.1-4.8 9.7-4.6 21.2 8.1 6.2 6.8 12.3 15 16.1 21.3 3.3 5.6 7 11.2 8.2 12.6 1.1 1.4 2.8 3.4 3.6 4.5 1.9 2.6 2.7 1.6 3.7-4.2.9-5.7-.2-14.4-3.5-27.9-3.2-13-3.1-12.8-8.5-16.8-2.5-1.9-5.4-4.3-6.3-5.3-1.7-1.8-1.6-2.1 2.7-5.6 2.4-2 5.1-3.7 5.9-3.7.9 0 1.6-.4 1.6-.8 0-1.2-8.7-3.4-10.9-2.7-3.1 1-8.4-1.9-11.4-6.2-1.9-2.8-3-5.9-3.5-10.6-.6-4.9-1.5-7.4-3.3-9.3-3.8-4.3-13.4-10-21.7-13.2-11.5-4.4-12.2-4.5-12.2-2.9z"/><path d="M310.1 87C161.8 113.6 45.6 229.6 18.6 378c-2 11.1-4.6 32.3-4.6 37.7v4.3h149c147.1 0 149 0 149-2 0-9.3-5.4-20.7-11.8-25-5.6-3.7-10.4-4.4-21.7-3-15.8 1.8-39.6 2.4-43.8 1.1-7.6-2.5-9.4-8.8-6.1-21.3 1.8-7 1.4-8.8-1.9-8.8-4 0-7.7-3.6-7.7-7.5 0-3.7 2-6.3 6.1-7.7l2.8-1-3.9-3.7c-3.2-3-4-4.5-4-7.4 0-4 3.6-7.7 7.6-7.7 2.3 0 4.4-2.5 4.4-5.2 0-.7-1.4-1.9-3-2.6-6-2.7-8-12.2-3.7-17.5 1.2-1.5 5.1-4.6 8.7-7 11.2-7.3 13.4-13.3 10.6-28.6-2.5-13.8-2.2-22.4 1.2-29.5l2.8-5.9 7.4 9.9c16.6 22.1 44.2 55.7 61.2 74.6l7.9 8.6-5.4 7.9c-15.1 22.2-13.5 47.7 3.6 56.4 9.4 4.9 23.7 1.2 30.1-7.8 3.7-5.3 6.5-12.5 6.6-17.2v-3.3l6.9 6.4c12.3 11.7 28.3 25 31.2 26 2.1.7 3 1.8 3.3 4.1.3 1.8 1.3 7.9 2.3 13.7l1.8 10.5 12.9.3c14.2.3 14.6.1 14.6-5.6 0-4.4-2-8.8-6.3-14-2-2.3-4.2-5.9-4.9-7.8-1.1-3.1-1.6-3.5-3.8-2.9-7.1 1.8-13.8 1.7-18.1-.2-9.5-4.3-54.3-46.7-80.5-76.3-11.7-13.2-33.4-39-40.4-48-1.9-2.5 4.2 2.8 13.5 11.6 27.4 26 55.1 50.5 78.5 69.3 15.1 12.1 15.9 12.6 12.4 6.4-1.6-2.6-3.7-5.5-4.9-6.3-5.4-3.9-33.9-28.1-49.5-42-21.4-19.1-51.9-48.4-67.1-64.3l-11.2-11.8 1.3-5.7c2.7-12.2 9.9-25.8 17.8-33.5l3.9-3.8 8.9 14.8c21.9 36.4 53.2 80.3 81.3 114.1 8.3 10 8.6 10.2 9.3 7.5.5-1.8.3-3.2-.6-4.3-7.5-8.6-23.4-28.9-35.4-44.8-13-17.4-39-55.2-42.3-61.4-1.1-2 5.3 4.5 20.6 21 5.5 5.9 33 31.6 44.3 41.2l7.2 6.2v-3c0-2.6-1.6-4.4-11.2-12.8-30.2-26.4-73.5-72.6-80.5-85.9-2.2-4.2-2.7-6.3-2.7-13 0-6.9.4-9 3.1-14.7 5.3-11.4 16-19.7 27.3-21.3l4.5-.6 6 12.1c3.3 6.7 6.2 12.3 6.5 12.5.3.2 0-3.3-.7-7.8-2.6-17.5-.8-37.1 5.3-58 .7-2.2-.8-2.1-14.5.3zm30.2 251.8l11.7 11.7v5c-.1 8.1-5.5 17.2-11.8 19.6-10.8 4.1-19.2-4-19.2-18.7 0-9.3 4.7-29.4 6.9-29.4.3 0 5.9 5.3 12.4 11.8zM550.3 131.1c-.7 2.5-6.6 19.5-7.8 22.1-.5 1.3-.3 1.8.9 1.8.9 0 2.1 1.2 2.7 2.7 2.4 6.2 5.1 23.4 5.3 32.8.1 8.5-.2 10.6-1.8 13-1.2 1.8-1.9 4.3-1.7 6.3.6 7.8-5.2 15.6-11.3 15-3.1-.3-3.1-.2-3.7 5.2-1.3 11.8-8.4 29.1-16.6 39.9-3.1 4.1-6 9-6.4 11-1.2 4.9-1.1 15.9.2 26.1.5 4.7 1.2 21.2 1.4 36.6.4 37.3.6 37.8 22 49.3 6.1 3.2 14.4 7.7 18.5 9.9 4.2 2.3 11.9 5.3 17.5 6.8 11.3 3 19.3 6.3 21.4 8.7 1.2 1.6 7.3 1.7 71.8 1.7h70.4l-.6-6.2c-2.8-27.7-6.3-47.3-12.6-69.8-13.1-46.3-35.4-89.7-66.5-128.7-10.1-12.6-41.1-43.6-53.7-53.7-15.7-12.5-45.4-32.6-48.2-32.6-.4 0-.9 1-1.2 2.1zM1017 173.5V204h3.4c4.2 0 4.6-.9 4.6-11.1V185h9.4c18.7 0 26-6 25.9-21.2-.2-15.9-7.5-20.8-31-20.8H1017v30.5zm29.3-21.5c3.9 1.9 5.7 5.9 5.7 12.8 0 10.2-4.3 13.2-19.2 13.2h-7.8v-28.2l9.3.4c5 .3 10.5 1.1 12 1.8zM1080 173.5v30.6l3.8-.3 3.7-.3.3-10.8.3-10.7h9.7l9.2 11c8.9 10.5 9.5 11 13.1 11 2.2 0 3.9-.5 3.9-1.1 0-.6-3.8-5.6-8.5-11s-8.5-10-8.5-10.2c0-.3 1.6-.8 3.6-1.1 5.1-1 10.9-6.6 12.4-12.1 2.6-9.4-.8-18.5-8.6-22.5-4.4-2.3-6.2-2.5-19.6-2.8l-14.8-.4v30.7zm30.7-21.2c3.9 2 5.9 7.6 4.9 13.2-1.3 7-6.6 9.5-19.8 9.5h-7.8V149.7l9.8.5c6.3.3 10.8 1.1 12.9 2.1zM1143 173.5V204l17.8-.2 17.7-.3.3-3.3.3-3.2H1151v-21h12.9c8.1 0 13.2-.4 13.6-1.1.4-.5.4-2.1.1-3.5-.6-2.4-.7-2.4-13.6-2.4h-13v-18.9l13.8-.3 13.7-.3v-6l-17.7-.3-17.8-.2v30.5zM1197.5 144.3c-.3.7-.4 14.3-.3 30.2l.3 29 3.8.3 3.7.3V177h27v-7h-27v-20h28v-7h-17.5c-13.2 0-17.7.3-18 1.3zM1251 173.5V204l17.8-.2 17.7-.3v-6l-14.2-.3-14.3-.3V176h27v-7h-27v-19h28v-7h-35v30.5zM1306 173.5v30.6l3.8-.3 3.7-.3v-60l-3.7-.3-3.8-.3v30.6zM1331 146.5v3.5h17l.2 26.7.3 26.8h7l.3-26.8.2-26.7h17v-7h-42v3.5zM1389.4 144.5c-.3.8-.4 11.3-.2 23.2.4 23.6.7 25.3 6.6 31.6 7.3 7.7 26.9 7.3 34-.7 5.2-5.9 5.7-9 5.7-33.1v-22l-3.7-.3-3.7-.3-.3 22.8c-.3 19.8-.5 23.3-2.1 25.6-2.9 4.5-6.5 6.2-13.2 6.2-6.7 0-10.3-1.7-13.2-6.2-1.6-2.3-1.8-5.8-2.1-25.5l-.4-22.8h-3.4c-2.1 0-3.7.6-4 1.5zM1457 173.6v30.5l3.8-.3 3.7-.3.3-10.8.3-10.7h9.6l9.3 11c8.8 10.5 9.4 11 13.1 11 2.1 0 3.9-.5 3.9-1.1 0-.5-3.8-5.4-8.5-10.8s-8.5-10.1-8.5-10.4c0-.2 1.6-.8 3.6-1.1 9.2-1.8 15-12.7 12.5-23.4-2.6-10.8-9.9-14.2-30.3-14.2H1457v30.6zm26.4-22.6c7.9 1.8 11.7 9.8 8.2 17.2-2.3 4.8-5.5 6.1-16.8 6.6l-9.8.4V150h7.3c3.9 0 9 .5 11.1 1zM1534.5 144.2c-.3.7-5.2 13.8-11 29.1s-10.5 28.5-10.5 29.3c0 1.1 1 1.4 3.7 1.2 3.7-.3 3.8-.4 6.7-8.1l2.9-7.8 13.1.3 13 .3 2.6 6.5c1.4 3.6 2.9 7.1 3.3 7.7.9 1.4 7.7 1.8 7.7.5 0-.4-5-14.1-11.1-30.5l-11.2-29.7h-4.4c-2.6 0-4.5.5-4.8 1.2zm10.5 22.6l5 14.2h-10.5c-5.8 0-10.5-.2-10.5-.4 0-.4 6.8-19.9 9.5-27.5.3-.8.8-1.2 1-.9.3.2 2.7 6.8 5.5 14.6zM1608.5 144.3c-.3.7-.4 14.3-.3 30.2l.3 29h13.5c12.4 0 13.9-.3 19.1-2.7 9.6-4.4 13.9-13.1 13.9-27.8 0-22-9.3-30-34.6-30-8.3 0-11.6.3-11.9 1.3zm29.7 8.9c6.8 3.7 8.3 7.4 8.3 19.8 0 8.9-.3 11.1-2.2 14.6-3.1 5.8-8.6 8.3-19.7 9.1l-8.6.6v-47.6l9 .6c6.8.4 10.1 1.1 13.2 2.9zM1674 173.5V204l17.8-.2 17.7-.3.3-3.3.3-3.2H1682v-20.9l13.3-.3 13.2-.3v-6l-13.2-.3-13.3-.3v-18.8l13.8-.3 13.7-.3v-6l-17.7-.3-17.8-.2v30.5zM1224.5 226.9c-7.5 1.9-11.8 6.6-13.5 14.7-2.2 10.5.7 14.4 10.8 14.4 4.3 0 5.8-.5 7.7-2.5 1.4-1.3 2.5-3.1 2.5-3.8 0-1.7 2.1-2.7 5.6-2.7 1.3 0 7.2 1.8 13.1 4.1 16.3 6.1 28 6.5 34.3 1.2 4.5-3.8 6.3-8 6.4-14.9.1-8.6-1.6-10.4-10-10.4-8 0-9.2.5-10.9 4.6-1.3 3.1-1.7 3.4-5.8 3.4-2.6 0-8.5-1.5-14.8-3.9-10.7-4.1-20-5.6-25.4-4.2zM1371.5 264.6c-10.5 2.2-22.3 8.3-29.2 15.3-7 7-11.2 14.5-14.9 26.6-2.6 8.5-2.8 10.1-2.8 29-.1 23.5 1.2 30.8 7.6 43.8 7.3 14.6 19.6 24.3 36.5 28.8 6 1.7 10.8 2.1 20.8 2.1 21.6 0 35.2-4.9 47.5-17.2 7.4-7.4 11.8-15.4 15.2-27.7 1.9-6.8 2.2-10.4 2.3-28.3 0-18.4-.2-21.4-2.3-29-8.2-29.9-29.8-45.2-63.4-44.9-5.7 0-13.4.7-17.3 1.5zm27.4 38.5c8.1 4.5 11.1 13.7 11.1 33.4 0 19.2-2.8 28.4-9.9 33.2-7.1 4.8-18 3.8-23.7-2.3-5.7-6-6.9-11.6-6.9-31.4 0-16.1.2-17.9 2.3-22.5 2.7-5.7 4.6-8.1 8.7-10.6 4.2-2.7 13.6-2.6 18.4.2zM1685.5 264.4c-19.4 4.5-32.4 14.3-40 30.1-6.8 14.2-9.6 34.2-7.7 53.6 2.2 21.6 7.3 34.2 18.1 45 10 10 20.9 14.9 38.2 17 16 1.9 35.7-1.9 46.8-9 17.9-11.5 26.5-29.6 27.8-58.6.7-15.7-.7-27.7-4.7-39.7-4.7-14-11-22.4-22.4-29.9-9.9-6.5-19.7-9.1-36.1-9.5-9.5-.3-15.9.1-20 1zm25.8 38c7.9 3.3 11.6 12 12.4 29.6 1.2 25.2-4.5 38.4-17.3 40.5-8.7 1.4-17.1-3.2-20.5-11.2-2.7-6.3-4.3-20.2-3.5-31 1.2-15.5 4.6-23.8 11.6-27.4 4.1-2.3 12.6-2.5 17.3-.5zM1819.5 264.5c-14.8 2.7-24.3 8.1-30.2 16.9-4.5 6.6-6.3 13.4-6.3 23.7 0 23.5 10.6 36.1 38.6 46.2 17.6 6.4 23.7 9.5 24.8 12.9 3.6 10.4-24.1 13.2-45.7 4.7-9-3.5-10-2.4-17.2 17.4-3.6 10-3 11.7 6 15.8 11.5 5.2 21.2 7 40 7.6 14.9.5 18.1.3 25.8-1.6 14.2-3.4 22.9-8.9 29.2-18.5 5-7.7 6.8-15 6.3-26.5-.8-20.6-10-30.7-37.6-41-20.3-7.7-26.2-11.2-26.2-15.5.1-5.2 3.9-6.8 16.3-6.8 6.7 0 13.3.8 20 2.3 6.9 1.6 10.4 2 11.6 1.3 3.8-2.3 12.3-24.3 10.5-27.2-3-4.8-16.5-10.1-30.8-12.1-10.1-1.4-26.3-1.3-35.1.4zM845 266.3l-2.5 1.3-.3 48.4c-.2 41.3 0 49.6 1.3 55.7 4.4 19.9 17.5 32.4 38.3 36.8 9.8 2 30.1 2 39.5-.1 21.1-4.7 34-17.2 38.3-37.2 2-9.8 2.1-100.9 0-103.8-1.3-1.7-3-1.9-18.6-2.2-18.5-.4-22.6.4-23.5 4.2-.3 1.1-.6 22.1-.7 46.6-.3 48.7-.2 48.1-6.4 52.9-3.4 2.7-13.2 2.9-17.5.4-6.3-3.7-6.3-4.1-6.9-54.6l-.5-45.9-2.4-1.9c-2.1-1.7-4.1-1.9-19-1.9-11.4 0-17.4.4-19.1 1.3zM983.4 267.5L981 270l.2 67.6c.3 65.6.4 67.6 2.2 69 2.8 2 35.4 2 38.2 0 1.8-1.4 1.9-3.2 2.4-33.5l.5-32 17.9 32.5c13.6 24.7 18.5 32.8 20.3 33.5 1.3.5 10 .9 19.1.9 13.6 0 17.2-.3 19-1.6l2.2-1.5v-67.8c0-56.9-.2-68-1.4-69.7-1.3-1.7-3-1.9-18.8-2.2-16.1-.3-17.6-.2-19.9 1.6l-2.4 2-.5 31.5-.5 31.4-17.5-31.9c-13.2-24.1-18.2-32.3-20.2-33.4-2-1-6.9-1.4-19.3-1.4-16.3 0-16.6 0-19.1 2.5zM1127.2 266.6l-2.2 1.5v68.3c0 64.9.1 68.4 1.8 69.9 1.6 1.5 4.5 1.7 19.8 1.7 14 0 18.5-.3 20-1.4 1.8-1.4 1.9-3.4 2.2-69l.2-67.6-2.4-2.5c-2.5-2.5-2.7-2.5-19.8-2.5-14.1 0-17.8.3-19.6 1.6zM1227.5 267.3c-2.2 1.8-6.1 12.8-24.1 67.7-11.8 36-21.4 66.7-21.4 68.2 0 1.7.7 3.1 1.9 3.8 1.2.6 9.5 1 20 1 22 0 21.9.1 25.4-13l2.3-8.5 19.2-.3 19.1-.2 2.1 7.2c1.2 4 2.4 8.1 2.6 9 .3 1 1.7 2.7 3.1 3.8 2.4 1.8 4 2 20.5 2 10.4 0 18.7-.4 19.9-1 1.2-.7 1.9-2.1 1.9-3.9 0-1.5-9.6-32.2-21.4-68.2-18-54.7-21.9-65.8-24.1-67.6-2.5-2.2-3.3-2.3-23.5-2.3s-21 .1-23.5 2.3zm34.5 81.4c0 1-3 1.3-11.5 1.3-6.3 0-11.5-.2-11.5-.5 0-.6 10.8-37.6 11.6-39.5.5-1.3 11.4 35.6 11.4 38.7zM1504.2 266.6l-2.2 1.5v68.3c0 64.9.1 68.4 1.8 69.9 1.6 1.5 5.4 1.7 32.3 1.7 26.1 0 31.7-.3 39.8-2 24.8-5.1 38.6-18.1 45.3-42.5 1.8-6.9 2.1-10.6 2.1-27 0-16.3-.3-20.1-2.1-26.8-7.4-27-23.2-39.9-53.6-43.7-4.4-.5-20-1-34.6-1-22.4 0-26.9.2-28.8 1.6zm63.1 39.8c8.8 4.3 12.2 14 11.5 33.6-.3 9.9-.9 13.5-2.5 17-3.8 8.4-10 11.9-22.5 12.8l-7.8.5v-66.5l8.8.4c5.8.2 10 1 12.5 2.2zM424.5 368c1.8 3.5 1.9 6.2.3 7.8-.9.9-.4 1.2 2.5 1.2 2 0 4 .1 4.5.2.4.2.8-.7 1-2 .3-1.7-.8-3.4-4-6.2-5.1-4.8-6.4-5-4.3-1zM161 435.1c0 .6 1.1 5.4 2.5 10.8 9.8 38.9 28.7 72 57.5 101.2 10.9 11 25.3 23.3 31.9 27.2l3 1.7 3.3-6.2c2.7-5.2 3.8-6.4 6.1-6.6 1.6-.2 3.1-1 3.3-1.7.4-.9 1.6-1.2 4-.8 2.5.4 3.5.2 4-1 .4-1.1 1.4-1.5 3.3-1.1 1.8.4 3.2 0 4-1 .8-1 2.2-1.4 3.6-1 1.4.3 2.9-.1 3.9-1.1s2.5-1.5 3.7-1.2c1.2.3 2.8-.2 3.9-1.3s2.7-1.6 4.3-1.3c1.8.4 2.8-.1 3.6-1.5.7-1.4 1.7-1.8 3.5-1.5 1.7.4 2.8-.1 3.6-1.4.9-1.4 2.1-1.8 4-1.5 2.1.3 3.1-.1 3.9-1.6.7-1.3 1.7-1.8 3-1.5 1.2.3 2.6-.3 3.7-1.6 1-1.2 2.8-2.1 4.1-2.1 1.2 0 2.8-.9 3.6-2 .8-1.2 1.8-2 2.3-1.9 2.6.4 4.3-.3 4.9-2.1.4-1.3 1.5-2 3-2 1.4 0 2.9-.8 3.5-1.9.5-1.1 2-2.1 3.2-2.3 1.3-.2 2.7-1.3 3.3-2.6.6-1.3 1.8-2.2 3.3-2.2 1.4 0 2.6-.9 3.4-2.4.6-1.4 2-2.6 3.2-2.8 1.1-.2 2.5-1.3 3.1-2.6.5-1.2 1.5-2.2 2.1-2.2 1.7 0 4.7-3.7 3.9-4.9-.3-.6.2-1.1 1.2-1.1 2.4 0 4.3-1.9 4.3-4.1 0-1 1.1-2 2.5-2.3 1.7-.4 2.5-1.3 2.5-2.9 0-1.3.9-2.6 2.3-3.2 1.2-.6 2.4-2.1 2.5-3.4.2-1.3 1.2-2.6 2.3-2.8 1.1-.3 2.2-1.7 2.6-3.2.3-1.4 1.5-3.2 2.5-3.9 1-.7 1.8-2.4 1.8-3.8s.6-2.4 1.5-2.4c1.8 0 3.7-3.4 2.9-5.4-.4-1-.1-1.6 1-1.6 1.8 0 4-3.6 3-5.1-.3-.6.4-1.8 1.6-2.6 1.5-1.1 2-2.3 1.7-3.9-.3-1.7.1-2.5 1.5-3 2.3-.7 2-1.1 4.3 5.1 4.5 12.3 17.6 41.7 32.7 73.5 9 19 18.4 39.1 20.8 44.8l4.3 10.2 5.6-3.1c31.4-17.7 60.2-46.1 79.3-78.1 11.9-20 20.1-41.2 26.2-68.1l.6-2.7h-88.5c-83.8 0-88.6.1-88.5 1.7.3 3-1.1 6.2-2.5 5.7-1.3-.5-4.5 2.1-4.5 3.7 0 .5-.9.9-2 .9s-2.5.9-3.2 2c-.7 1.1-2.3 2-3.5 2-1.3 0-2.4.8-2.8 1.9-.3 1.2-1.2 1.8-2 1.5-.7-.3-2.3.4-3.4 1.5-1.2 1.2-3 2.1-4.1 2.1-1 0-2.4.9-3 1.9-.6 1.2-1.7 1.7-2.9 1.4-1.2-.3-2.4.3-3.3 1.6-.9 1.3-2.1 1.9-3.1 1.5-.9-.3-2.3.2-3.3 1.4-.9 1.1-2.4 1.7-3.4 1.5-1.1-.3-2.3.3-3.1 1.5-.7 1.2-1.9 1.7-3.1 1.4-1-.2-2.7.3-3.8 1.3-1.1 1-2.6 1.5-3.5 1.1-.8-.3-2.3.2-3.3 1.2s-2.8 1.6-4.5 1.4c-1.6-.2-2.9.2-3.2 1.1-.4.9-1.6 1.2-3.5.9-2.1-.3-3.2.1-3.6 1.2-.5 1.2-1 1.4-2 .6-.9-.8-1.9-.8-3.6.1-1.3.7-3.5 1.2-5.1 1-1.7-.2-2.9.3-3.3 1.3-.5 1.3-.9 1.4-2 .5-.8-.6-2.3-.9-3.5-.6-1.3.4-1.9.2-1.5-.6 6.8-15.5 7.7-21.6 4.9-35.7l-1.9-9.5-76.2-.3c-53.8-.1-76.2.1-76.2.9zM393.6 459c0 1.1-.6 2-1.2 2-.7 0-1-.8-.7-2 .3-1.1.8-2 1.2-2 .4 0 .7.9.7 2zm11.1-.4c-.3.3-1.2.4-1.9.1-.8-.3-.5-.6.6-.6 1.1-.1 1.7.2 1.3.5zm-17 5.4c-.6 1.6-1.4 2.7-1.7 2.5-1.1-.7-5 2.5-5 4.1 0 .8-.8 1.4-1.8 1.4-2.3 0-4.2 1.9-4.2 4.1 0 1.2-.6 1.6-1.9 1.2-2-.5-5.1 2.1-5.1 4.3 0 .8-.4 1.2-1 .9-1.6-1-5 1.4-5 3.6 0 1.5-.5 1.9-1.6 1.5-2.2-.9-5.4 1.1-5.4 3.4 0 1.3-.5 1.7-1.4 1.4-1.9-.7-5.6 1.3-5.6 3.1 0 .7-1.2 1.5-2.7 1.7-1.6.2-3.2 1.2-3.8 2.4-.6 1.1-1.5 1.9-2.2 1.7-1.8-.6-5.3 1.6-5.3 3.3 0 1.1-.6 1.4-1.6 1-2-.8-5.4 1.1-5.4 2.9 0 1-1 1.5-3.1 1.5-2.3 0-3.2.5-3.6 2.1-.4 1.5-1.1 1.9-2.5 1.5-1.3-.3-2.9.4-4.5 2-1.3 1.3-2.8 2.2-3.3 1.9-1.3-.8-5 1.3-5 2.9 0 .8-1 1.1-2.9.8-2.2-.3-3.3.1-4.2 1.7-.9 1.4-2 1.9-3.5 1.5-1.5-.4-2.6.1-3.6 1.4-.8 1.3-2.4 2-4.1 1.9-1.5-.1-2.7-.4-2.7-.5 0-.2 4.5-8 10-17.3 5.5-9.2 10.5-18 11.2-19.4.6-1.4 1.7-2.5 2.4-2.5s1.4-.6 1.7-1.3c.3-.9.7-.9 2 .2 1.4 1.1 2 1.1 4-.2 1.5-1 2.9-1.2 3.8-.7.8.6 2.2.4 3.4-.4 1.2-.8 3.3-1.2 4.8-.9 1.8.4 2.9 0 3.2-.9.4-1 1.6-1.3 3.5-1 2 .3 3.2-.1 3.5-1 .4-1 1.6-1.3 3.5-1 2.1.3 3.2-.1 3.6-1.1.4-1.2 1.4-1.5 3.5-1 2.1.4 3 .1 3.5-1.2.5-1.2 1.4-1.5 3-1.1 1.7.5 2.7.1 3.6-1.3.9-1.4 1.9-1.9 3.5-1.5 1.5.4 2.5 0 3.4-1.3.8-1.3 2-1.8 3.5-1.5 1.5.3 2.7-.2 3.5-1.5.8-1.3 1.9-1.8 3.4-1.5 1.6.3 2.7-.2 3.5-1.7.6-1.2 1.5-1.9 2-1.6 1.4.9 5-1.3 5-3 0-.8.6-1.2 1.4-.9 1.1.4 1.2 1.1.3 3.4zm13.1.8c.2.7-.3 1.2-1.2 1.2-1.8 0-3.8 3.3-3.1 5.2.3.7-.5 1.8-1.7 2.3-1.3.6-2.3 1.9-2.3 3s-.9 2.5-2 3c-1.1.6-2.1 2.2-2.3 3.6-.2 1.4-1.2 2.9-2.5 3.4-1.2.6-2.3 1.9-2.5 3-.2 1.1-1.3 2.5-2.5 3-1.2.6-2.3 1.9-2.5 3-.2 1.1-1.3 2.5-2.5 3-1.2.6-2.4 2-2.7 3.3-.3 1.3-.8 2.3-1.2 2.3-2.4-.2-2.9.1-3.9 2.3-.7 1.4-2.2 2.7-3.5 3-1.3.4-2.4 1.3-2.4 2.2 0 .8-1.3 2-3 2.5-1.6.6-3.2 1.9-3.5 2.9-.3 1-1.6 2-2.8 2.2-1.2.2-2.7 1.3-3.3 2.5-.6 1.3-1.3 2-1.7 1.7-1-1-4.6.7-5.2 2.5-.3 1-1.4 1.7-2.7 1.7-1.2-.1-2.7.8-3.2 1.9-.7 1.3-1.9 1.9-3.3 1.7-1.4-.2-2.7.4-3.5 1.7-.8 1.3-2.3 2.1-4.1 2.1-1.5 0-3 .7-3.3 1.5-.4.8-1.9 1.5-3.5 1.5-1.7 0-3.2.7-3.8 1.9-.7 1.3-1.8 1.7-3.5 1.4-1.7-.4-2.8.1-3.6 1.4-.9 1.4-2.1 1.8-4.1 1.5-2-.3-3.1.1-3.5 1.2-.4 1.1-1.3 1.4-2.9 1-1.5-.4-3 .1-4.2 1.3-1.1 1.1-2.9 1.7-4.6 1.5-1.7-.2-2.9.2-3.3 1.2-.4 1-1.4 1.3-3.3 1-1.8-.4-3.2 0-4 1-.9 1-2.2 1.4-3.8 1-1.6-.4-3 0-4.3 1.1-3.2 2.9-2.4.1 2.3-8 2.6-4.7 4.8-7.4 5.9-7.5 1 0 2.3-.9 3-1.9.9-1.4 1.9-1.8 3.9-1.4 2 .4 3-.1 4.1-1.6.9-1.3 2.1-1.9 3.1-1.5 1.9.7 5.7-1.2 5.7-3 0-.8 1-1.1 2.9-.8 2.2.3 3.2-.1 4-1.7.6-1.1 1.7-1.8 2.5-1.5 1.9.7 5.6-1.3 5.6-3 0-.8 1-1.1 2.9-.8 2.3.3 3.2-.1 4.3-1.9.8-1.5 2.2-2.4 3.8-2.4 1.4 0 2.9-.8 3.5-2 .6-1.2 2-2 3.5-2 1.6 0 2.8-.8 3.5-2.2.7-1.6 1.5-2.1 3.1-1.7 1.7.4 2.7-.1 3.9-2 1.1-1.6 2.7-2.6 4.1-2.6 1.6 0 2.8-.8 3.5-2.4.8-1.6 1.7-2.2 2.9-1.9 1.2.3 2.4-.4 3.5-2.1 1-1.4 2.6-2.6 3.6-2.6 1.9 0 5.2-3.8 4.4-5.1-.3-.4.4-.5 1.5-.2 2.4.6 5-1.3 5-3.7 0-1.3.6-1.7 1.9-1.3 2 .5 5.1-2 5.1-4.2 0-.8 1.2-1.5 2.8-1.7 1.9-.2 2.8-.9 3-2.6.2-1.4 1-2.2 2.2-2.2 2.4 0 5.3-2.9 4.6-4.6-.4-.9.2-1.4 1.7-1.4 2.7 0 4.7-1.7 4.7-4 0-1.9 4.2-2 4.8-.2zM1836.5 435.9c-19.4 3.1-30.4 10.1-36.3 23-3.8 8.1-4.4 24.1-1.3 33.4 5.4 16.2 14.5 23.5 40.6 32.7 14.6 5.1 20.3 8.2 21.1 11.6 2.4 9.6-21.2 12.5-42.8 5.4-12.7-4.2-12.9-4.1-18.5 11.2-2.4 6.3-4.3 12.4-4.3 13.5 0 9 37.1 17.9 63.2 15.2 16.9-1.7 27-5.8 35.3-14.4 8.8-9 12.1-18.8 11.2-33.8-1.1-19.6-10.9-29.7-39.2-40.2-14.1-5.2-22.5-9.5-23.7-12.1-1.5-3.2-.3-6.9 2.7-8.2 3.7-1.7 21.8-1.4 30 .4 11.5 2.7 13.4 2.8 15.4 1 1-.9 3.8-6.6 6.1-12.7 4.1-10.3 4.3-11.3 2.9-13.8-1.9-3.5-10.3-7.5-21.4-10.2-9.9-2.3-32-3.4-41-2zM859.1 438.2c-1.4.7-2.8 2.7-3.3 4.5-.5 1.8-.7 32.5-.6 68.2.3 62.2.4 65 2.2 67 1.8 2 2.9 2.1 20.1 2.1 16.4 0 18.4-.2 19.8-1.8 1.4-1.6 1.7-4.4 1.7-18.9v-17.1l17.3-.5c11.8-.3 19.1-1 23.2-2.2 24.1-6.8 34.4-21.6 34.5-49.6 0-12-2.4-23.6-6.4-30.4-5.5-9.3-15.6-16-29.8-19.6-7.4-1.9-11.8-2.2-42.3-2.6-26.5-.3-34.5-.1-36.4.9zm62.8 37.1c1.9.7 4.3 2.4 5.4 3.9 2.9 3.8 3.4 12.6 1.2 18.3-2.4 6.4-5.5 7.7-18.7 8.3l-10.8.5V474l9.8.1c5.3 0 11.2.5 13.1 1.2zM1019.5 437.9c-1.2.5-2.6 1.6-3.3 2.4-1.5 1.8-44.2 131.9-44.2 134.7 0 4.6 2 5 22 5 22.3 0 21.8.2 25-11 1.2-4.1 2.4-8.3 2.6-9.3.5-1.6 2.1-1.7 19.6-1.5l19.1.3 2.4 8.5c3.9 13.4 3.1 13 25.9 13 20.6 0 21.7-.3 21.6-5.3 0-1.2-9.5-31.5-21.2-67.2-15.8-48.4-21.8-65.6-23.6-67.5-2.4-2.5-2.5-2.5-23.2-2.7-11.4-.1-21.6.2-22.7.6zm31 75.3l2.4 8.8h-12c-11 0-12-.2-11.5-1.8.3-.9 2.6-8.7 5.1-17.2 7.6-25.7 6.3-24.4 10.2-10.5 1.8 6.6 4.4 15.9 5.8 20.7zM1126 438.3c-1.6.8-2.7 2.5-3.2 5.2-.5 2.1-.7 32.8-.6 68.1.3 61.5.4 64.3 2.2 66.3 1.9 2.1 2.4 2.1 46.1 2.1 41.8 0 44.3-.1 45.9-1.9 1.4-1.6 1.6-4 1.4-18.2-.3-16.3-.3-16.3-2.8-17.6-1.8-.9-8.9-1.3-25.2-1.3H1167v-99.1l-2.5-2.4c-2.4-2.5-2.7-2.5-19.2-2.5-11.4 0-17.6.4-19.3 1.3zM1239.2 438c-1.2.5-2.7 2.1-3.2 3.6-.7 1.7-.9 26.3-.8 69.1.3 64.5.4 66.5 2.2 67.9 1.5 1.1 6 1.4 19.7 1.4 15.2 0 17.8-.2 19-1.7 1.1-1.3 1.5-8.8 1.9-35.5l.5-33.9 12.8 21.5c7 11.9 13.7 22.1 14.8 22.7 4.8 2.5 6.3.9 20.1-22.4l13.3-22.2.3 33.9c.2 29.9.4 34.2 1.9 35.8 1.4 1.6 3.5 1.8 19.3 1.8 15.9 0 17.9-.2 19.3-1.8 1.6-1.7 1.7-7.9 1.7-69.3 0-56.7-.2-67.8-1.4-69.5-1.3-1.7-3-1.9-17.4-2.2-12.2-.3-16.7 0-19.3 1.1-3 1.3-5.4 4.8-18.8 28.1-8.5 14.7-15.7 26.9-16 27.1-.4.2-7.5-11.5-15.9-26s-16.2-27.1-17.4-28.2c-1.7-1.6-4-1.8-18.2-2-8.8-.1-17.1.2-18.4.7zM1441.3 438.4c-3.1 1.4-3.4 2.2-20.3 53.8-9.4 28.8-19.4 59.2-22.2 67.6-4.8 14.6-4.9 15.4-3.4 17.7l1.6 2.5h18.9c23.2 0 22.7.3 26.1-13l2.4-9h38.3l2.6 9.2c3.8 13.2 3 12.8 25.7 12.8 16.8 0 18.9-.2 20.3-1.8 1-1 1.7-2.5 1.7-3.3 0-3.5-43.3-133.6-45.1-135.4-1.8-1.9-3.4-2-22.7-2.2-16.1-.2-21.4 0-23.9 1.1zm28.6 63.7c2.8 10.2 5.1 18.9 5.1 19.2 0 1-23 .9-23-.1-.2-2.3 11.6-39.9 12.1-38.9.4.6 3 9.6 5.8 19.8zM1547.6 439.4l-2.6 2.5v66.8c0 58.9.2 67.1 1.6 69.1 1.5 2.1 2 2.2 20 2.2 24.3 0 22.4 1.9 22.4-23v-19h9.9l10.6 18.7c5.8 10.4 11.7 19.8 13.1 21.1 2.5 2.2 3 2.2 21.7 2l19.2-.3.9-2.7c.9-2.4-.3-4.8-11.7-23.6-7-11.5-12.7-21.2-12.7-21.5 0-.3 2.2-1.9 4.9-3.7 13.4-8.6 20.1-21.8 20.1-40 0-21.6-7.9-36.2-23.5-43.6-12.5-6-17.2-6.5-56.2-7.1l-35.2-.5-2.5 2.6zm65.3 35.9c5.4 1.9 7.6 5.7 7.6 13.1 0 11.6-4.3 14.6-21 14.6H1589v-29l10.3.1c5.6 0 11.7.5 13.6 1.2zM1685 438.3l-2.5 1.3-.3 68.3c-.2 62.6-.1 68.6 1.4 70.3 1.6 1.7 4.4 1.8 48.1 1.8 45 0 46.4-.1 48.3-2 1.8-1.8 2-3.3 2-15.8 0-19.9 2.8-18.2-30.1-18.2H1725v-19h24.3c22.5 0 24.5-.1 26.1-1.9 1.4-1.6 1.6-3.9 1.4-16.2-.3-14.2-.3-14.4-2.8-15.6-1.8-.9-9-1.3-25.7-1.3H1725v-16h25.4c32.6 0 30.1 1.5 30.1-18.4 0-12.6-.2-14.8-1.8-16.3-1.6-1.7-5.1-1.8-46.5-2.1-34.8-.1-45.3.1-47.2 1.1zM603.5 467c-.9 5.6-1.5 10.3-1.3 10.6.8.7 29.7 5.8 30.2 5.3 1.2-1.2 3.9-20 3-20.8-.5-.5-2.2-1.1-3.9-1.3-2.8-.3-3-.1-4 5.2-.7 4-1.5 5.6-2.8 5.8-1.6.3-1.8-.2-1.1-5.6l.6-5.9-3.3-.7c-3.8-.7-4.5 0-5.4 6.1-.4 2.8-1.1 4.3-2.1 4.3-1.2 0-1.4-1.3-1.2-6.3l.3-6.2-3.6-.3-3.6-.3-1.8 10.1zM118.7 460.5c-8.1 2.8-11.8 9.6-9.7 17.7 1.3 4.7 3.5 8.8 4.9 8.8.5 0 2-.9 3.4-2 2.5-2 2.5-2.2 1.1-5.6-1.9-4.6-1-7.3 3.2-9 6.9-2.9 10.6-1 11 5.7.2 4 .5 4.5 3.4 5.3 4 1.2 5-.1 5-6.4-.1-12.7-9.8-19-22.3-14.5zM129.6 492.9c-7.7 2.6-14.1 5.2-14.3 5.8-.7 1.9 2.6 8.5 3.9 8.1.7-.3 7.2-2.4 14.3-4.8 7.2-2.3 13.2-4.4 13.4-4.6.6-.5-1.8-8.2-2.7-8.7-.4-.2-7 1.7-14.6 4.2zM601.8 489.6c-3 1.6-5.6 6-8.3 14.3-1.5 4.5-1.5 5.5-.4 6.2 3.1 2 27.9 9.7 28.4 8.8 1.9-2.9 4.5-12.9 4.5-16.8 0-6-2-8.7-8.4-11.7-5.8-2.7-11.8-3-15.8-.8zm11.8 10c2.7 1.3 3.4 2.2 3.4 4.5 0 3.4-.8 3.5-7.6 1.3-6.5-2.2-7.1-2.9-4.9-5.4 2.2-2.4 4.6-2.5 9.1-.4zM135.8 511.8c-6.4 3.2-12.2 6.2-12.9 6.9-1.5 1.5 5.6 14.9 9.4 17.7 8.2 6 24.7-2.4 24.7-12.6 0-5.3-5.6-17.8-7.9-17.7-.9 0-6.9 2.6-13.3 5.7zm11.8 8.7c.8 3.1-.9 5.3-5.4 7.2-3 1.2-3.7 1.2-5.8-.2-1.3-.8-2.4-2-2.4-2.5 0-.9 10.5-6.8 12.2-7 .4 0 1 1.1 1.4 2.5zM582.6 525.4c-1.4 2.5-2.6 4.7-2.6 4.9 0 1.1 20.2 24.2 21.1 24.2.6 0 2-1.7 3.2-3.8 2-3.5 2-3.8.4-5.4-1.5-1.5-1.5-1.9.5-5.4 1.8-3.3 2.5-3.7 4.8-3.3 2.3.5 3 0 4.9-3.2 1.2-2 1.8-4 1.4-4.5-.6-.6-29.1-7.9-30.8-7.9-.2 0-1.5 2-2.9 4.4zm16.1 7.6c.6 0 .2 1.6-.6 2.9-.8 1.2-1.2 1.3-2.6.1-.9-.7-2-2.1-2.6-3.1-.8-1.6-.6-1.7 2.3-.8 1.8.5 3.4.9 3.5.9zM152.8 544.3c-8.2 2.8-14.8 5.6-14.8 6.2 0 .6 1.3 2.5 3 4.3 2.5 2.7 3.3 3.1 4.9 2.2 1.6-.8 2.4-.5 4.5 2.2 2.3 2.9 2.4 3.5 1.1 5.4-1.2 1.9-1.1 2.5 1.1 5.5 1.4 1.9 3 3.4 3.6 3.4.6 0 5.1-5.8 10.1-12.8l8.9-12.9-3-4.1c-1.6-2.3-3.3-4.2-3.8-4.3-.5-.2-7.5 2-15.6 4.9zm8.2 8.7c-1.8 2.5-2.5 2.8-3.6 1.9-2.1-1.7-1.7-2.6 1.4-3.7 4.2-1.6 4.5-1.4 2.2 1.8zM569.5 548c-2.2.8-13.5 12.6-13.5 14 0 .4 4.4 4.5 9.8 9.1 5.3 4.5 10.5 8.9 11.6 9.8 1.7 1.5 2.1 1.3 6.7-3.9 2.7-3 5.6-7.4 6.5-9.7 1.6-4.1 1.6-4.4-.7-9-4.1-8.3-13.6-13.1-20.4-10.3zm9.2 12.4c3.4 3.1 3.6 3.6 2.5 6-.6 1.4-1.5 2.6-1.9 2.6-.5 0-3-2-5.8-4.4-4.3-3.8-4.8-4.6-3.6-6 2.1-2.5 4.8-1.9 8.8 1.8zM173.2 570.8l-10.1 10.9 5.7 5.5c6.7 6.6 8.9 7.8 13.6 7.8 7.7 0 17.7-11.9 16.1-19.2-.8-3.3-11.8-15.8-14-15.8-.6 0-5.7 4.9-11.3 10.8zM189 577c0 2.7-5.5 8-8.2 8-5 0-5-2.1 0-7.5 4.3-4.6 4.9-5 6.5-3.7.9.9 1.7 2.3 1.7 3.2zM541.3 575.4c-8.6 6.5-9.9 8.1-8.2 10.3 5.5 7.1 18.2 21.3 18.9 21.3.6 0 2.4-1.3 4.1-2.8l3.1-2.8-2.6-3.1c-2.4-2.8-3.4-5.3-2.1-5.3.3 0 2.2.7 4.2 1.5 4.7 2 6.5 1.9 9.7-.6 3.7-2.9 3.2-4.3-2.1-6-4.6-1.4-4.7-1.5-4.8-5.8-.1-3.7-.7-4.9-3.8-7.7-5.2-4.8-8.9-4.6-16.4 1zm10.7 8.1c0 .6-.9 2-2 3-2 1.8-2.1 1.8-3.5-.1-1.9-2.6-1.9-3 .7-4.8 2.3-1.6 4.8-.6 4.8 1.9zM200.5 594.5c-4.7 6.3-8.5 12-8.4 12.7 0 1.1 13.3 11.5 16.1 12.6 1 .5 4.7-3.9 4.8-5.5 0-.6-2-2.6-4.4-4.4-2.7-1.9-4.2-3.7-3.9-4.5.7-2 1.4-1.8 6.2 1.8l4.3 3.1 1.9-2.4c2.6-3.4 2.4-4.3-1.8-7.5-2.1-1.5-4-2.9-4.2-3.1-.3-.2 0-.8.6-1.4.8-.8 2.4-.2 5.8 2.2l4.7 3.4 2.4-2.8c1.3-1.6 2.4-3.1 2.4-3.5-.1-1-15.5-12.2-16.9-12.2-.6 0-4.9 5.2-9.6 11.5zM515.6 594c-5.7 3.7-7.7 5.5-7.4 6.8.3.9 3.9 7 8.2 13.5 7.4 11.5 7.7 11.8 9.9 10.5 1.2-.8 5.2-3.4 9-5.7 3.7-2.4 6.7-4.7 6.7-5.2 0-1.5-3.1-5.9-4.1-5.9-.5 0-2.7 1.2-4.9 2.6-3.6 2.4-7 2.7-7 .7 0-.5 2-2 4.5-3.5s4.5-3.1 4.5-3.5c0-.5-.9-1.9-2-3.3l-2-2.5-4.9 2.7c-4.5 2.5-6.1 2.7-6.1.7 0-.4 2-2 4.5-3.6 4.7-2.9 5.4-4.6 3.1-7.6-2-2.6-3.4-2.2-12 3.3zM236.3 616.7c-8 17.1-7.7 16-4.3 17.8 4.9 2.5 5.9 2 9-4.8l2.8-6.2.7 5c1 6.6 1.2 6.9 4.3 4.9 8.2-5.3 7.8-5.4 4.3 1.4-1.7 3.4-3.1 6.6-3.1 7.2 0 1 5.8 4 7.8 4 .4 0 3.7-6.1 7.2-13.6 6.2-13.2 6.3-13.7 4.4-15.1-3.9-2.9-6.3-2.7-11.8 1-6.2 4.1-6.6 3.8-6.6-4.4 0-4.5-.3-5.1-3.2-6.9-1.8-1.1-3.9-2-4.6-2-.7 0-3.8 5.3-6.9 11.7zM492.5 607.4c-4.1 1.3-12.1 5.1-14.2 6.8-.8.6.5 4.4 4.9 13.6 3.3 7 6.5 13.2 7 13.9 1.2 1.5 13.7-4.4 18.1-8.5 3.6-3.5 3.8-9.2.2-12.7-1.3-1.4-2.9-2.5-3.5-2.5-.6 0-1-.8-.9-1.8.3-3.4-.1-5-1.8-7-2.5-2.8-5.1-3.3-9.8-1.8zm3.1 8.8c.4.6-.3 1.9-1.6 3-2.3 1.9-2.5 1.9-3.7.1-1.2-1.5-1.1-2 .4-3 2.1-1.6 4-1.7 4.9-.1zm5.2 11.4c.2 1.4-.6 2.4-2.3 3.2-2.3 1.1-2.7.9-3.4-1.1-.7-1.7-.4-2.5 1.3-3.4 2.7-1.6 4-1.2 4.4 1.3zM285 616c-1.5 2.8-.3 4.3 3 3.6 1.8-.3 3.3 0 4 .9 1.9 2.3 6.6 3.5 8.5 2.1 2.7-2 1.5-5.1-1.9-4.9-1.6.1-4-.6-5.4-1.7-3.2-2.6-6.8-2.5-8.2 0zM462.8 620.3c-1.6.6-2.8 1.8-2.8 2.6 0 1.6 9.5 26.9 10.4 27.9.6.5 6.6-1.6 8-2.9.5-.5-1.4-6.9-4.4-14.8-5.6-14.9-5.6-15-11.2-12.8zM277.1 635.1c-5.1 7.3-8.9 13.5-8.4 13.9.4.4 2.3 1.2 4.2 1.9 3 1 3.7.9 5.6-.9 1.8-1.7 2.5-1.8 5.7-.8 2.8.8 3.8 1.7 4 3.6.2 1.9 1.2 2.8 4.2 3.9 2.2.7 4.4.9 4.8.5.5-.5.6-7.9.2-16.6l-.7-15.6-5-1.5c-2.8-.8-5.1-1.5-5.2-1.5 0 0-4.3 5.9-9.4 13.1zm11.6 6.5c-.2.3-1.4.1-2.5-.3l-2.1-.8 2.2-3.5 2.2-3.5.3 3.9c.2 2.1.1 4-.1 4.2zM434.3 628.7c-1.4.3-2.3 1.2-2.3 2.2 0 2 6.6 28.1 7.3 28.8.6.5 16.8-3.6 18.6-4.7 1-.5 1.2-1.9.7-4.5-.7-3.7-.8-3.7-4.4-3.1-2 .3-4.6.9-5.8 1.2-1.8.5-2.2-.1-3.4-5.3-.7-3.2-1.9-7.9-2.7-10.5-1.4-5-2-5.3-8-4.1zM311.7 637.7c-4.3 19.5-4.9 22.5-4.1 23.3 1.4 1.3 19.7 5.1 20.5 4.3.4-.5 1-2.2 1.4-4 .7-3.4.5-3.6-6.8-4.9-4-.7-5.5-2-4-3.5.6-.6 2.7-.6 5.8.1 2.6.6 4.9.9 5.2.7.2-.3.6-2 1-4l.5-3.5-5.5-1.2c-4.2-.8-5.5-1.5-5-2.6.6-1.7 1.1-1.7 7-.3 5.1 1.3 6.3.5 6.3-4.3 0-2.1-.6-2.9-2.2-3.3-1.3-.2-5.4-1.1-9.1-2-3.8-.8-7.4-1.5-8.2-1.5-.8 0-1.9 2.5-2.8 6.7zM395.8 634.7c-1.6.2-2.8.6-2.8.8 0 .3-1.3 6.6-3 14.2-3.9 17.7-3.9 17.3.8 17.3 4.4 0 5.8-.8 6.3-3.5.3-1.6 1.3-2.1 4.6-2.3 3.4-.3 4.2 0 4.8 1.7.5 1.6 1.5 2.1 4.3 2.1 7.2 0 7.2-.5.1-16.2-7-15.6-6.9-15.4-15.1-14.1zm5.5 13c.2 1 .8 2.6 1.2 3.5.6 1.5.2 1.8-2 1.8-2.1 0-2.6-.4-2.1-1.6.3-.9.6-2.4.6-3.5 0-2.4 1.6-2.5 2.3-.2zM352.2 637.3c-1 1.2-1.2 4.9-.6 16.1l.7 14.6h7.6c13.1 0 18.6-4.5 18.6-15.3-.1-11.8-4-15.6-16.6-16.4-6.9-.5-8.7-.3-9.7 1zm14.8 9.2c1.7 2.1 1.8 8.9.1 10.9-.7.9-2.2 1.6-3.2 1.6-1.7 0-1.9-.8-1.9-7s.2-7 1.9-7c1 0 2.4.7 3.1 1.5zM526 646.6c-3.6 2.4-6.6 4.9-6.8 5.4-.4 1.2 12.7 20 14 20 2.2 0 13.7-8.5 13.8-10.1 0-.9-.7-2.2-1.5-2.9-1.6-1.3-3.6-.8-7.7 2.2-1.3.9-2 1-2.8.2-.8-.8-.2-1.7 2.4-3.4 3.9-2.4 4.3-3.6 2.2-6.5-1.4-1.9-1.5-1.9-5.2.8-2.5 1.7-4.2 2.3-4.8 1.7-.5-.5-.8-1.1-.5-1.3 7.9-5.6 8-5.7 6.3-8.2-.9-1.4-1.9-2.5-2.3-2.5-.3 0-3.5 2.1-7.1 4.6zM217 663.7c-6.9 12.1-7.1 11.1 3.2 16.8l6.7 3.6 1.5-3 1.6-3-4-2.2c-2.2-1.3-4-2.9-4-3.6 0-1.8.9-1.6 4.8.7 3.5 2.2 4.6 2 6.2-1 .9-1.7.4-2.3-3-4.6-5-3.3-4.2-5.1 1-2.4 5 2.5 5.4 2.5 6.8-.5 1-2.1.8-2.6-1.6-4.3-3.4-2.3-11.9-7.2-12.5-7.2-.3 0-3.3 4.8-6.7 10.7zM505.5 660.3c-4.6 1.9-11.5 5.7-11.5 6.4 0 1.6 11.6 21.3 12.6 21.3 2.2 0 10.4-5.2 12.9-8.1 3-3.6 3.1-6 .6-11.4-3.4-7.5-8.8-10.5-14.6-8.2zm5.5 8.9c2.4 2.6 2.4 8.1 0 8.6-1.8.3-6.6-8.1-5.5-9.7 1-1.7 3.3-1.3 5.5 1.1zM250.9 674.7c-5.3 12.4-7.1 17.5-6.3 18.3 1.7 1.6 11.5 5 14.5 5 6.2 0 13-10.6 11.3-17.5-.3-1.4-1.8-3.4-3.2-4.5-2.9-2.4-10.8-6-12.9-6-.7 0-2.3 2.1-3.4 4.7zm9.9 5.5c2.9 2.9-.1 9.8-4.4 9.8-2.9 0-2.9.1-.3-6.1 2.3-5.2 2.8-5.6 4.7-3.7zM477.1 673.6l-3.4 1.4.7 12.8c.4 7 1 13 1.4 13.3.4.4 2.2 0 4-.7 2.3-1 3.2-2.1 3.2-3.7 0-3.2 5.1-5.2 7.4-2.9 1.4 1.4 1.9 1.4 5.1-.1 2.5-1.2 3.4-2.1 2.8-3.1-1.8-3-15.9-18.6-16.8-18.6-.5.1-2.5.7-4.4 1.6zm6.7 13.5c-1.5.9-2.8-.8-2.8-3.6.1-1.9.2-1.8 2.1.4 1.5 1.9 1.7 2.6.7 3.2zM279.8 689.2c-9.7 13.2-10.1 13.8-8.6 14.3.7.2 2.6.9 4.1 1.5 2.2.8 2.9.7 3.3-.5.6-1.6 4.1-2 6-.7.7.4 1.3 1.6 1.5 2.6.4 1.9 7.1 5 8.3 3.9.8-.8.8-9.1 0-18.6-.7-7.3-.8-7.6-3.7-8.7-1.6-.5-3.6-1-4.3-1-.7 0-3.7 3.3-6.6 7.2zm7.2 5.3c0 1.6-.6 2.5-1.5 2.5-1.8 0-1.8-.5-.5-3.1 1.4-2.6 2-2.4 2 .6zM447.7 683.9c-3.2 1.1-6.1 2.1-6.3 2.4-.5.4 6.4 22.7 7.2 23.6.2.2 3.1-.4 6.5-1.4 8.1-2.5 11.9-6.1 11.9-11.2 0-4.2-2.8-11.1-5.3-13.1-2.6-2.2-7.9-2.3-14-.3zm9.9 9.6c.7 1.9 1.4 3.6 1.4 3.9 0 .8-3.1 3.6-4 3.6-.7 0-4-8.9-4-10.7 0-.2 1.1-.3 2.6-.3 1.9 0 2.8.8 4 3.5zM316.5 690.3c-1.3 4.2-4.3 23.3-3.7 23.9.4.3 2.2.8 4.1 1l3.5.3 2.2-12c1.2-6.6 1.9-12.3 1.5-12.6-1.4-1.4-7.2-1.9-7.6-.6zM421 689.9c-1.7.5-2.4 1.4-2.3 2.7.5 5.3 3.6 21 4.4 21.8 1.1 1.2 16-1.4 16.5-2.9.3-.6 0-2.3-.5-3.7-.9-2.4-1.3-2.6-4.8-1.8-2 .5-4 .7-4.3.4-.3-.3-1.2-4.2-2.1-8.7-1.6-8.6-2.1-9.2-6.9-7.8zM338.1 693.3c-4.6 1.6-7.3 5.5-7.9 11.5-.9 9.6 4.9 14.9 15.5 14 2.9-.3 5.6-.7 5.9-1.1.3-.3.7-3.6.7-7.4l.2-6.8-4.7-.3c-4-.3-4.7 0-5.3 1.9-.5 1.5-.2 2.6.9 3.4 2.1 1.6 2 3.5-.2 3.5-2.8 0-4.2-2.1-4.2-6.1 0-5 1.9-6.3 7.9-5.5 5 .7 6.1-.1 6.1-3.9 0-2.8-10-5-14.9-3.2zM398.5 692.9c-2.8.6-3.1 1.1-5.2 9.6-1.2 5-2.5 10.7-2.8 12.7l-.7 3.8h4.1c2.9 0 4.1-.4 4.1-1.5 0-.8.9-1.9 1.9-2.5 2.8-1.4 6.1-1.2 6.1.4 0 .8.6 1.6 1.3 1.9 1.7.6 7.7-.4 7.7-1.3 0-.8-9-20.7-10.3-22.8-.9-1.3-1.5-1.3-6.2-.3zm4.2 13.5c-.9 2.6-2.7 1.5-2.7-1.6.1-3.1.1-3.2 1.5-1.3.9 1 1.4 2.4 1.2 2.9zM360.7 694.7c-1.3 1.2-.7 16.3.7 19.8 1.8 4.1 4.2 5.5 9.8 5.5 9.2 0 11.6-3.8 11-17.8l-.4-8.2H374.1l-.3 9.2c-.3 8.5-.5 9.3-2.3 9.3-1.8 0-2-.8-2.3-7-.3-10.7-.7-11.5-4.6-11.5-1.8 0-3.6.3-3.9.7z"/></svg>