<svg version="1.0" xmlns="http://www.w3.org/2000/svg"
 width="1920.000000pt" height="743.000000pt" viewBox="0 0 1920.000000 743.000000"
 preserveAspectRatio="xMidYMid meet">
<g transform="translate(0.000000,743.000000) scale(0.100000,-0.100000)"
fill="#000000" stroke="none">
<path d="M4225 7290 c-280 -51 -469 -115 -612 -210 -146 -96 -177 -140 -286
-395 -54 -129 -69 -180 -103 -345 -40 -198 -1 -498 79 -603 62 -82 54 -103
-14 -37 -55 53 -86 61 -114 28 -19 -22 -23 -43 -29 -147 -6 -110 -5 -125 15
-171 23 -54 36 -63 41 -28 5 36 35 34 56 -2 33 -60 35 -61 59 -40 22 17 22 20
8 60 -25 72 -15 111 23 91 36 -19 44 -45 31 -96 -10 -38 -9 -53 5 -89 10 -25
24 -50 32 -56 20 -17 18 -57 -4 -64 -10 -4 -39 0 -65 8 -26 8 -47 10 -47 5 0
-16 44 -38 98 -50 63 -13 70 -40 12 -50 l-35 -6 28 -11 c16 -7 41 -12 56 -12
30 0 49 -31 71 -117 10 -40 19 -51 32 -38 2 3 -6 35 -18 72 -36 105 -28 186
10 105 30 -61 75 -111 122 -131 46 -21 50 -29 38 -90 -5 -25 -9 -29 -20 -20
-22 18 -28 -15 -15 -74 6 -29 15 -84 20 -124 8 -66 13 -77 57 -127 32 -38 60
-60 88 -69 34 -11 42 -19 47 -46 9 -43 54 -97 115 -138 98 -65 92 -58 70 -82
-34 -37 -76 -28 -153 34 -76 61 -102 67 -138 30 -31 -30 -31 -49 1 -154 41
-135 77 -201 165 -300 68 -75 91 -94 136 -111 64 -24 101 -25 131 -4 l22 15
-25 49 c-14 27 -25 54 -25 60 0 24 52 7 103 -36 59 -48 75 -82 58 -126 -9 -23
-13 -24 -64 -20 -49 4 -56 2 -62 -17 -10 -33 23 -117 65 -166 49 -57 74 -123
67 -175 l-5 -40 764 0 c420 0 764 2 764 5 0 11 -96 47 -190 72 -58 15 -132 44
-190 76 -52 28 -140 75 -194 104 -109 58 -157 97 -189 158 -20 37 -22 60 -28
340 -4 165 -12 350 -19 410 -11 107 -7 216 11 262 5 13 34 56 64 97 82 108
165 330 165 438 0 31 4 38 19 38 11 0 23 -4 26 -10 11 -17 41 -11 64 14 36 38
38 98 7 180 -30 78 -33 118 -10 140 35 36 47 8 38 -86 -5 -49 -3 -68 5 -68 18
0 31 46 31 110 0 63 -33 269 -50 314 -9 25 -14 28 -43 22 -44 -8 -122 -92
-132 -143 -9 -49 -32 -94 -59 -115 -16 -14 -41 -18 -113 -18 l-93 0 0 -30 c0
-23 8 -35 35 -52 39 -26 47 -39 35 -58 -15 -24 -58 -1 -105 58 -26 31 -86 98
-133 148 -181 189 -182 191 -99 282 28 32 60 73 69 90 19 36 80 57 137 48 79
-12 63 -46 -24 -51 -60 -4 -115 -21 -115 -36 0 -5 13 -9 28 -9 20 0 35 -9 50
-30 l23 -30 -38 0 c-47 0 -83 -9 -83 -21 0 -5 14 -16 30 -24 41 -21 89 -11
152 31 54 37 85 43 94 19 10 -24 -14 -44 -74 -61 -39 -12 -51 -19 -41 -25 8
-5 24 -9 35 -9 18 0 34 -17 34 -35 0 -2 -35 -6 -78 -10 -84 -7 -119 -19 -86
-28 54 -15 92 -18 151 -12 61 6 64 8 70 36 3 16 14 34 24 40 14 7 19 21 19 56
l0 46 118 -6 c64 -4 127 -10 138 -13 18 -5 25 3 47 58 36 91 77 236 77 275 0
17 -7 58 -15 90 -11 41 -15 102 -13 213 2 173 -10 236 -59 306 -15 22 -99 108
-185 192 -143 138 -165 155 -250 196 -148 71 -231 88 -448 92 -152 3 -205 0
-295 -16z m-261 -374 c23 -25 66 -58 96 -74 87 -46 94 -98 18 -132 -61 -28
-75 -25 -92 15 -19 45 -44 46 -121 5 -105 -55 -150 -105 -161 -176 -14 -94 22
-107 269 -103 l182 3 104 -37 c57 -20 110 -42 116 -47 7 -6 13 -35 13 -65 0
-31 3 -74 7 -97 l7 -41 27 54 c21 43 31 54 50 54 24 0 24 0 25 -115 l1 -115
-37 -19 c-31 -17 -40 -18 -63 -8 -23 11 -26 17 -20 40 24 94 10 141 -20 68
-25 -59 -68 -61 -139 -8 -78 59 -108 66 -264 57 -177 -9 -207 -23 -164 -75 16
-20 32 -24 133 -32 117 -9 139 -18 139 -57 0 -13 -14 -16 -73 -16 -72 -1 -151
-20 -142 -35 8 -14 58 -18 82 -7 29 13 37 5 38 -40 0 -31 4 -38 30 -46 23 -8
44 -5 97 13 70 24 99 20 63 -7 -11 -8 -50 -30 -88 -48 -91 -45 -169 -103 -165
-124 4 -18 61 -26 116 -16 42 8 120 78 173 157 37 54 73 88 92 88 5 0 8 -39 5
-87 -3 -67 -10 -101 -30 -144 l-26 -56 -78 -8 c-65 -6 -85 -12 -126 -40 -95
-65 -263 -113 -333 -94 -67 18 -114 48 -171 106 -75 78 -73 127 6 153 54 18
60 30 15 30 -45 0 -39 11 26 46 27 15 48 32 46 38 -7 20 -66 30 -92 16 -13 -7
-31 -10 -39 -7 -11 5 -24 -6 -41 -34 -35 -54 -49 -42 -41 35 13 127 33 242 45
264 11 20 9 29 -13 67 -33 56 -33 68 4 119 23 31 32 58 38 109 5 41 15 74 25
85 16 15 17 14 17 -21 0 -20 4 -37 8 -37 5 0 35 24 68 54 45 40 60 61 62 84 1
16 9 47 18 67 18 43 10 55 -37 55 -60 0 -39 67 38 123 73 53 179 104 222 106
8 1 33 -19 55 -43z m764 -510 c29 -15 67 -77 97 -158 11 -30 25 -50 39 -54 19
-7 19 -8 -9 -17 -16 -5 -65 -34 -107 -63 -46 -32 -96 -58 -124 -64 -42 -10
-50 -9 -68 9 -17 17 -18 24 -8 46 16 34 15 45 -3 45 -19 0 -20 58 -1 104 16
39 82 136 104 154 21 16 47 15 80 -2z m-226 -654 c7 -66 18 -87 47 -97 28 -9
41 -50 41 -130 l0 -74 -37 16 c-33 13 -50 14 -121 4 -79 -11 -85 -11 -123 11
-36 20 -43 21 -72 9 -18 -8 -48 -14 -67 -15 -29 -1 -36 3 -38 22 -6 42 24 62
93 62 66 0 75 6 75 52 0 18 4 20 41 14 37 -6 44 -3 75 28 41 41 42 53 8 62
-19 5 -23 11 -18 23 4 9 7 27 7 41 -1 31 13 41 52 38 29 -3 30 -5 37 -66z
m-392 -346 c23 -29 75 -38 115 -21 21 8 49 15 64 15 34 0 121 -41 145 -69 l19
-21 -36 0 c-31 0 -37 -4 -46 -33 -16 -48 -6 -64 48 -77 54 -13 79 -6 142 40
44 32 68 37 100 20 36 -20 67 -110 37 -110 -7 0 -32 5 -55 10 -35 8 -55 6
-124 -17 -79 -25 -84 -25 -112 -10 -35 21 -83 21 -117 2 -14 -8 -50 -15 -80
-15 -30 0 -80 -7 -110 -15 -68 -18 -110 -19 -110 -2 0 6 9 27 21 46 11 18 18
35 15 38 -10 10 -96 -81 -113 -118 -11 -25 -26 -42 -40 -45 -24 -6 -31 -28
-13 -39 16 -10 12 -51 -7 -66 -15 -13 -16 -11 -10 20 5 25 3 39 -10 53 -15 17
-15 20 10 46 15 15 38 61 52 102 36 107 157 280 195 280 4 0 13 -7 20 -14z
m314 -395 c8 -7 18 -28 22 -47 3 -18 12 -38 20 -45 11 -9 15 -3 20 30 10 63
21 73 72 60 23 -7 42 -17 42 -23 0 -6 3 -21 6 -32 5 -18 2 -21 -18 -17 -28 5
-80 -16 -121 -49 l-27 -22 -63 32 c-41 21 -76 32 -105 32 -63 0 -131 -32 -132
-62 0 -4 16 -14 35 -22 48 -21 44 -39 -15 -60 -43 -15 -48 -20 -40 -36 10 -19
86 -60 110 -60 8 0 44 16 81 35 74 38 108 43 143 20 21 -14 26 -14 54 2 25 14
34 15 56 5 33 -15 33 -32 1 -62 -14 -13 -25 -28 -25 -33 0 -5 -8 -25 -17 -44
-16 -35 -16 -36 6 -54 12 -10 45 -21 72 -25 43 -6 48 -9 37 -22 -35 -42 -122
-52 -279 -31 -112 15 -141 29 -173 88 -24 45 -48 69 -155 159 -74 62 -157 66
-184 9 -18 -37 -11 -54 35 -91 51 -40 26 -31 -52 19 -85 56 -96 73 -81 129 6
22 12 59 13 81 3 39 3 39 16 16 10 -17 11 -26 3 -34 -38 -38 18 -49 100 -20
39 14 49 22 49 40 0 13 11 33 24 44 19 16 24 28 20 49 -5 23 -1 29 28 44 28
14 59 16 219 14 136 -3 191 -7 203 -17z m-647 -68 c-3 -10 -5 -4 -5 12 0 17 2
24 5 18 2 -7 2 -21 0 -30z m1053 -457 c0 -9 -97 -63 -170 -95 -72 -32 -80 -33
-190 -32 -110 1 -118 3 -186 36 -39 19 -77 35 -84 35 -7 0 -11 3 -8 6 3 3 46
-4 94 -16 160 -38 318 -24 479 44 68 28 65 27 65 22z"/>
<path d="M5730 7057 c0 -16 74 -150 108 -195 22 -29 43 -68 46 -87 4 -19 20
-66 36 -106 48 -116 44 -127 -65 -149 -83 -17 -89 -23 -65 -71 31 -59 49 -64
114 -29 109 57 106 57 226 -75 87 -96 148 -180 197 -275 4 -8 28 -41 53 -72
30 -39 48 -54 55 -47 5 6 10 55 9 112 -1 130 -49 330 -87 362 -13 11 -45 37
-71 58 l-46 38 44 34 c24 18 51 35 60 37 48 9 -9 40 -74 39 -64 -2 -87 9 -124
56 -31 39 -36 54 -36 97 0 66 -23 104 -100 160 -70 52 -280 137 -280 113z"/>
<path d="M6770 6757 c0 -21 69 -147 105 -192 18 -22 36 -56 40 -75 4 -19 22
-72 41 -118 19 -45 34 -89 34 -97 0 -19 -41 -39 -113 -54 -32 -7 -61 -19 -64
-27 -8 -21 44 -94 66 -94 10 0 43 14 74 30 91 48 97 46 212 -81 62 -68 123
-150 161 -213 33 -56 70 -112 82 -126 11 -14 28 -34 36 -45 19 -26 27 -16 37
42 9 57 -2 144 -35 279 -32 130 -31 128 -85 168 -25 19 -54 43 -63 53 -17 18
-16 21 27 56 24 20 51 37 59 37 9 0 16 4 16 8 0 12 -87 34 -109 27 -31 -10
-84 19 -114 62 -19 28 -30 59 -35 106 -6 49 -15 74 -33 93 -38 43 -134 100
-217 132 -115 44 -122 45 -122 29z"/>
<path d="M3101 6560 c-1483 -266 -2645 -1426 -2915 -2910 -20 -111 -46 -323
-46 -377 l0 -43 1490 0 c1471 0 1490 0 1490 20 0 93 -54 207 -118 250 -56 37
-104 44 -217 30 -158 -18 -396 -24 -438 -11 -76 25 -94 88 -61 213 18 70 14
88 -19 88 -40 0 -77 36 -77 75 0 37 20 63 61 77 l28 10 -39 37 c-32 30 -40 45
-40 74 0 40 36 77 76 77 23 0 44 25 44 52 0 7 -14 19 -30 26 -60 27 -80 122
-37 175 12 15 51 46 87 70 112 73 134 133 106 286 -25 138 -22 224 12 295 l28
59 74 -99 c166 -221 442 -557 612 -746 l79 -86 -54 -79 c-151 -222 -135 -477
36 -564 94 -49 237 -12 301 78 37 53 65 125 66 172 l0 33 69 -64 c123 -117
283 -250 312 -260 21 -7 30 -18 33 -41 3 -18 13 -79 23 -137 l18 -105 129 -3
c142 -3 146 -1 146 56 0 44 -20 88 -63 140 -20 23 -42 59 -49 78 -11 31 -16
35 -38 29 -71 -18 -138 -17 -181 2 -95 43 -543 467 -805 763 -117 132 -334
390 -404 480 -19 25 42 -28 135 -116 274 -260 551 -505 785 -693 151 -121 159
-126 124 -64 -16 26 -37 55 -49 63 -54 39 -339 281 -495 420 -214 191 -519
484 -671 643 l-112 118 13 57 c27 122 99 258 178 335 l39 38 89 -148 c219
-364 532 -803 813 -1141 83 -100 86 -102 93 -75 5 18 3 32 -6 43 -75 86 -234
289 -354 448 -130 174 -390 552 -423 614 -11 20 53 -45 206 -210 55 -59 330
-316 443 -412 l72 -62 0 30 c0 26 -16 44 -112 128 -302 264 -735 726 -805 859
-22 42 -27 63 -27 130 0 69 4 90 31 147 53 114 160 197 273 213 l45 6 60 -121
c33 -67 62 -123 65 -125 3 -2 0 33 -7 78 -26 175 -8 371 53 580 7 22 -8 21
-145 -3z m302 -2518 l117 -117 0 -50 c-1 -81 -55 -172 -118 -196 -108 -41
-192 40 -192 187 0 93 47 294 69 294 3 0 59 -53 124 -118z"/>
<path d="M5503 6119 c-7 -25 -66 -195 -78 -221 -5 -13 -3 -18 9 -18 9 0 21
-12 27 -27 24 -62 51 -234 53 -328 1 -85 -2 -106 -18 -130 -12 -18 -19 -43
-17 -63 6 -78 -52 -156 -113 -150 -31 3 -31 2 -37 -52 -13 -118 -84 -291 -166
-399 -31 -41 -60 -90 -64 -110 -12 -49 -11 -159 2 -261 5 -47 12 -212 14 -366
4 -373 6 -378 220 -493 61 -32 144 -77 185 -99 42 -23 119 -53 175 -68 113
-30 193 -63 214 -87 12 -16 73 -17 718 -17 l704 0 -6 62 c-28 277 -63 473
-126 698 -131 463 -354 897 -665 1287 -101 126 -411 436 -537 537 -157 125
-454 326 -482 326 -4 0 -9 -10 -12 -21z"/>
<path d="M10170 5695 l0 -305 34 0 c42 0 46 9 46 111 l0 79 94 0 c187 0 260
60 259 212 -2 159 -75 208 -310 208 l-123 0 0 -305z m293 215 c39 -19 57 -59
57 -128 0 -102 -43 -132 -192 -132 l-78 0 0 141 0 141 93 -4 c50 -3 105 -11
120 -18z"/>
<path d="M10800 5695 l0 -306 38 3 37 3 3 108 3 107 48 0 49 0 92 -110 c89
-105 95 -110 131 -110 22 0 39 5 39 11 0 6 -38 56 -85 110 -47 54 -85 100 -85
102 0 3 16 8 36 11 51 10 109 66 124 121 26 94 -8 185 -86 225 -44 23 -62 25
-196 28 l-148 4 0 -307z m307 212 c39 -20 59 -76 49 -132 -13 -70 -66 -95
-198 -95 l-78 0 0 126 0 127 98 -5 c63 -3 108 -11 129 -21z"/>
<path d="M11430 5695 l0 -305 178 2 177 3 3 33 3 32 -140 0 -141 0 0 105 0
105 129 0 c81 0 132 4 136 11 4 5 4 21 1 35 -6 24 -7 24 -136 24 l-130 0 0 95
0 94 138 3 137 3 0 30 0 30 -177 3 -178 2 0 -305z"/>
<path d="M11975 5987 c-3 -7 -4 -143 -3 -302 l3 -290 38 -3 37 -3 0 135 0 136
135 0 135 0 0 35 0 35 -135 0 -135 0 0 100 0 100 140 0 140 0 0 35 0 35 -175
0 c-132 0 -177 -3 -180 -13z"/>
<path d="M12510 5695 l0 -305 178 2 177 3 0 30 0 30 -142 3 -143 3 0 104 0
105 135 0 135 0 0 35 0 35 -135 0 -135 0 0 95 0 95 140 0 140 0 0 35 0 35
-175 0 -175 0 0 -305z"/>
<path d="M13060 5695 l0 -306 38 3 37 3 0 300 0 300 -37 3 -38 3 0 -306z"/>
<path d="M13310 5965 l0 -35 85 0 85 0 2 -267 3 -268 35 0 35 0 3 268 2 267
85 0 85 0 0 35 0 35 -210 0 -210 0 0 -35z"/>
<path d="M13894 5985 c-3 -8 -4 -113 -2 -232 4 -236 7 -253 66 -316 73 -77
269 -73 340 7 52 59 57 90 57 331 l0 220 -37 3 -37 3 -3 -228 c-3 -198 -5
-233 -21 -256 -29 -45 -65 -62 -132 -62 -67 0 -103 17 -132 62 -16 23 -18 58
-21 255 l-4 228 -34 0 c-21 0 -37 -6 -40 -15z"/>
<path d="M14570 5694 l0 -305 38 3 37 3 3 108 3 107 48 0 48 0 93 -110 c88
-105 94 -110 131 -110 21 0 39 5 39 11 0 5 -38 54 -85 108 -47 54 -85 101 -85
104 0 2 16 8 36 11 92 18 150 127 125 234 -26 108 -99 142 -303 142 l-128 0 0
-306z m264 226 c79 -18 117 -98 82 -172 -23 -48 -55 -61 -168 -66 l-98 -4 0
126 0 126 73 0 c39 0 90 -5 111 -10z"/>
<path d="M15345 5988 c-3 -7 -52 -138 -110 -291 -58 -153 -105 -285 -105 -293
0 -11 10 -14 37 -12 37 3 38 4 67 81 l29 78 131 -3 130 -3 26 -65 c14 -36 29
-71 33 -77 9 -14 77 -18 77 -5 0 4 -50 141 -111 305 l-112 297 -44 0 c-26 0
-45 -5 -48 -12z m105 -226 l50 -142 -105 0 c-58 0 -105 2 -105 4 0 4 68 199
95 275 3 8 8 12 10 9 3 -2 27 -68 55 -146z"/>
<path d="M16085 5987 c-3 -7 -4 -143 -3 -302 l3 -290 135 0 c124 0 139 3 191
27 96 44 139 131 139 278 0 220 -93 300 -346 300 -83 0 -116 -3 -119 -13z
m297 -89 c68 -37 83 -74 83 -198 0 -89 -3 -111 -22 -146 -31 -58 -86 -83 -197
-91 l-86 -6 0 238 0 238 90 -6 c68 -4 101 -11 132 -29z"/>
<path d="M16740 5695 l0 -305 178 2 177 3 3 33 3 32 -140 0 -141 0 0 105 0
104 133 3 132 3 0 30 0 30 -132 3 -133 3 0 94 0 94 138 3 137 3 0 30 0 30
-177 3 -178 2 0 -305z"/>
<path d="M12245 5161 c-75 -19 -118 -66 -135 -147 -22 -105 7 -144 108 -144
43 0 58 5 77 25 14 13 25 31 25 38 0 17 21 27 56 27 13 0 72 -18 131 -41 163
-61 280 -65 343 -12 45 38 63 80 64 149 1 86 -16 104 -100 104 -80 0 -92 -5
-109 -46 -13 -31 -17 -34 -58 -34 -26 0 -85 15 -148 39 -107 41 -200 56 -254
42z"/>
<path d="M13715 4784 c-105 -22 -223 -83 -292 -153 -70 -70 -112 -145 -149
-266 -26 -85 -28 -101 -28 -290 -1 -235 12 -308 76 -438 73 -146 196 -243 365
-288 60 -17 108 -21 208 -21 216 0 352 49 475 172 74 74 118 154 152 277 19
68 22 104 23 283 0 184 -2 214 -23 290 -82 299 -298 452 -634 449 -57 0 -134
-7 -173 -15z m274 -385 c81 -45 111 -137 111 -334 0 -192 -28 -284 -99 -332
-71 -48 -180 -38 -237 23 -57 60 -69 116 -69 314 0 161 2 179 23 225 27 57 46
81 87 106 42 27 136 26 184 -2z"/>
<path d="M16855 4786 c-194 -45 -324 -143 -400 -301 -68 -142 -96 -342 -77
-536 22 -216 73 -342 181 -450 100 -100 209 -149 382 -170 160 -19 357 19 468
90 179 115 265 296 278 586 7 157 -7 277 -47 397 -47 140 -110 224 -224 299
-99 65 -197 91 -361 95 -95 3 -159 -1 -200 -10z m258 -380 c79 -33 116 -120
124 -296 12 -252 -45 -384 -173 -405 -87 -14 -171 32 -205 112 -27 63 -43 202
-35 310 12 155 46 238 116 274 41 23 126 25 173 5z"/>
<path d="M18195 4785 c-148 -27 -243 -81 -302 -169 -45 -66 -63 -134 -63 -237
0 -235 106 -361 386 -462 176 -64 237 -95 248 -129 36 -104 -241 -132 -457
-47 -90 35 -100 24 -172 -174 -36 -100 -30 -117 60 -158 115 -52 212 -70 400
-76 149 -5 181 -3 258 16 142 34 229 89 292 185 50 77 68 150 63 265 -8 206
-100 307 -376 410 -203 77 -262 112 -262 155 1 52 39 68 163 68 67 0 133 -8
200 -23 69 -16 104 -20 116 -13 38 23 123 243 105 272 -30 48 -165 101 -308
121 -101 14 -263 13 -351 -4z"/>
<path d="M8450 4767 l-25 -13 -3 -484 c-2 -413 0 -496 13 -557 44 -199 175
-324 383 -368 98 -20 301 -20 395 1 211 47 340 172 383 372 20 98 21 1009 0
1038 -13 17 -30 19 -186 22 -185 4 -226 -4 -235 -42 -3 -11 -6 -221 -7 -466
-3 -487 -2 -481 -64 -529 -34 -27 -132 -29 -175 -4 -63 37 -63 41 -69 546 l-5
459 -24 19 c-21 17 -41 19 -190 19 -114 0 -174 -4 -191 -13z"/>
<path d="M9834 4755 l-24 -25 2 -676 c3 -656 4 -676 22 -690 28 -20 354 -20
382 0 18 14 19 32 24 335 l5 320 179 -325 c136 -247 185 -328 203 -335 13 -5
100 -9 191 -9 136 0 172 3 190 16 l22 15 0 678 c0 569 -2 680 -14 697 -13 17
-30 19 -188 22 -161 3 -176 2 -199 -16 l-24 -20 -5 -315 -5 -314 -175 319
c-132 241 -182 323 -202 334 -20 10 -69 14 -193 14 -163 0 -166 0 -191 -25z"/>
<path d="M11272 4764 l-22 -15 0 -683 c0 -649 1 -684 18 -699 16 -15 45 -17
198 -17 140 0 185 3 200 14 18 14 19 34 22 690 l2 676 -24 25 c-25 25 -27 25
-198 25 -141 0 -178 -3 -196 -16z"/>
<path d="M12275 4757 c-22 -18 -61 -128 -241 -677 -118 -360 -214 -667 -214
-682 0 -17 7 -31 19 -38 12 -6 95 -10 200 -10 220 0 219 -1 254 130 l23 85
192 3 191 2 21 -72 c12 -40 24 -81 26 -90 3 -10 17 -27 31 -38 24 -18 40 -20
205 -20 104 0 187 4 199 10 12 7 19 21 19 39 0 15 -96 322 -214 682 -180 547
-219 658 -241 676 -25 22 -33 23 -235 23 -202 0 -210 -1 -235 -23z m345 -814
c0 -10 -30 -13 -115 -13 -63 0 -115 2 -115 5 0 6 108 376 116 395 5 13 114
-356 114 -387z"/>
<path d="M15042 4764 l-22 -15 0 -683 c0 -649 1 -684 18 -699 16 -15 54 -17
323 -17 261 0 317 3 398 20 248 51 386 181 453 425 18 69 21 106 21 270 0 163
-3 201 -21 268 -74 270 -232 399 -536 437 -44 5 -200 10 -346 10 -224 0 -269
-2 -288 -16z m631 -398 c88 -43 122 -140 115 -336 -3 -99 -9 -135 -25 -170
-38 -84 -100 -119 -225 -128 l-78 -5 0 333 0 332 88 -4 c58 -2 100 -10 125
-22z"/>
<path d="M4245 3750 c18 -35 19 -62 3 -78 -9 -9 -4 -12 25 -12 20 0 40 -1 45
-2 4 -2 8 7 10 20 3 17 -8 34 -40 62 -51 48 -64 50 -43 10z"/>
<path d="M1610 3079 c0 -6 11 -54 25 -108 98 -389 287 -720 575 -1012 109
-110 253 -233 319 -272 l30 -17 33 62 c27 52 38 64 61 66 16 2 31 10 33 17 4
9 16 12 40 8 25 -4 35 -2 40 10 4 11 14 15 33 11 18 -4 32 0 40 10 8 10 22 14
36 10 14 -3 29 1 39 11 10 10 25 15 37 12 12 -3 28 2 39 13 11 11 27 16 43 13
18 -4 28 1 36 15 7 14 17 18 35 15 17 -4 28 1 36 14 9 14 21 18 40 15 21 -3
31 1 39 16 7 13 17 18 30 15 12 -3 26 3 37 16 10 12 28 21 41 21 12 0 28 9 36
20 8 12 18 20 23 19 26 -4 43 3 49 21 4 13 15 20 30 20 14 0 29 8 35 19 5 11
20 21 32 23 13 2 27 13 33 26 6 13 18 22 33 22 14 0 26 9 34 24 6 14 20 26 32
28 11 2 25 13 31 26 5 12 15 22 21 22 17 0 47 37 39 49 -3 6 2 11 12 11 24 0
43 19 43 41 0 10 11 20 25 23 17 4 25 13 25 29 0 13 9 26 23 32 12 6 24 21 25
34 2 13 12 26 23 28 11 3 22 17 26 32 3 14 15 32 25 39 10 7 18 24 18 38 0 14
6 24 15 24 18 0 37 34 29 54 -4 10 -1 16 10 16 18 0 40 36 30 51 -3 6 4 18 16
26 15 11 20 23 17 39 -3 17 1 25 15 30 23 7 20 11 43 -51 45 -123 176 -417
327 -735 90 -190 184 -391 208 -448 l43 -102 56 31 c314 177 602 461 793 781
119 200 201 412 262 681 l6 27 -885 0 c-838 0 -886 -1 -885 -17 3 -30 -11 -62
-25 -57 -13 5 -45 -21 -45 -37 0 -5 -9 -9 -20 -9 -11 0 -25 -9 -32 -20 -7 -11
-23 -20 -35 -20 -13 0 -24 -8 -28 -19 -3 -12 -12 -18 -20 -15 -7 3 -23 -4 -34
-15 -12 -12 -30 -21 -41 -21 -10 0 -24 -9 -30 -19 -6 -12 -17 -17 -29 -14 -12
3 -24 -3 -33 -16 -9 -13 -21 -19 -31 -15 -9 3 -23 -2 -33 -14 -9 -11 -24 -17
-34 -15 -11 3 -23 -3 -31 -15 -7 -12 -19 -17 -31 -14 -10 2 -27 -3 -38 -13
-11 -10 -26 -15 -35 -11 -8 3 -23 -2 -33 -12 -10 -10 -28 -16 -45 -14 -16 2
-29 -2 -32 -11 -4 -9 -16 -12 -35 -9 -21 3 -32 -1 -36 -12 -5 -12 -10 -14 -20
-6 -9 8 -19 8 -36 -1 -13 -7 -35 -12 -51 -10 -17 2 -29 -3 -33 -13 -5 -13 -9
-14 -20 -5 -8 6 -23 9 -35 6 -13 -4 -19 -2 -15 6 68 155 77 216 49 357 l-19
95 -762 3 c-538 1 -762 -1 -762 -9z m2326 -239 c0 -11 -6 -20 -12 -20 -7 0
-10 8 -7 20 3 11 8 20 12 20 4 0 7 -9 7 -20z m111 4 c-3 -3 -12 -4 -19 -1 -8
3 -5 6 6 6 11 1 17 -2 13 -5z m-170 -54 c-6 -16 -14 -27 -17 -25 -11 7 -50
-25 -50 -41 0 -8 -8 -14 -18 -14 -23 0 -42 -19 -42 -41 0 -12 -6 -16 -19 -12
-20 5 -51 -21 -51 -43 0 -8 -4 -12 -10 -9 -16 10 -50 -14 -50 -36 0 -15 -5
-19 -16 -15 -22 9 -54 -11 -54 -34 0 -13 -5 -17 -14 -14 -19 7 -56 -13 -56
-31 0 -7 -12 -15 -27 -17 -16 -2 -32 -12 -38 -24 -6 -11 -15 -19 -22 -17 -18
6 -53 -16 -53 -33 0 -11 -6 -14 -16 -10 -20 8 -54 -11 -54 -29 0 -10 -10 -15
-31 -15 -23 0 -32 -5 -36 -21 -4 -15 -11 -19 -25 -15 -13 3 -29 -4 -45 -20
-13 -13 -28 -22 -33 -19 -13 8 -50 -13 -50 -29 0 -8 -10 -11 -29 -8 -22 3 -33
-1 -42 -17 -9 -14 -20 -19 -35 -15 -15 4 -26 -1 -36 -14 -8 -13 -24 -20 -41
-19 -15 1 -27 4 -27 5 0 2 45 80 100 173 55 92 105 180 112 194 6 14 17 25 24
25 7 0 14 6 17 13 3 9 7 9 20 -2 14 -11 20 -11 40 2 15 10 29 12 38 7 8 -6 22
-4 34 4 12 8 33 12 48 9 18 -4 29 0 32 9 4 10 16 13 35 10 20 -3 32 1 35 10 4
10 16 13 35 10 21 -3 32 1 36 11 4 12 14 15 35 10 21 -4 30 -1 35 12 5 12 14
15 30 11 17 -5 27 -1 36 13 9 14 19 19 35 15 15 -4 25 0 34 13 8 13 20 18 35
15 15 -3 27 2 35 15 8 13 19 18 34 15 16 -3 27 2 35 17 6 12 15 19 20 16 14
-9 50 13 50 30 0 8 6 12 14 9 11 -4 12 -11 3 -34z m131 -8 c2 -7 -3 -12 -12
-12 -18 0 -38 -33 -31 -52 3 -7 -5 -18 -17 -23 -13 -6 -23 -19 -23 -30 0 -11
-9 -25 -20 -30 -11 -6 -21 -22 -23 -36 -2 -14 -12 -29 -25 -34 -12 -6 -23 -19
-25 -30 -2 -11 -13 -25 -25 -30 -12 -6 -23 -19 -25 -30 -2 -11 -13 -25 -25
-30 -12 -6 -24 -20 -27 -33 -3 -13 -8 -23 -12 -23 -24 2 -29 -1 -39 -23 -7
-14 -22 -27 -35 -30 -13 -4 -24 -13 -24 -22 0 -8 -13 -20 -30 -25 -16 -6 -32
-19 -35 -29 -3 -10 -16 -20 -28 -22 -12 -2 -27 -13 -33 -25 -6 -13 -13 -20
-17 -17 -10 10 -46 -7 -52 -25 -3 -10 -14 -17 -27 -17 -12 1 -27 -8 -32 -19
-7 -13 -19 -19 -33 -17 -14 2 -27 -4 -35 -17 -8 -13 -23 -21 -41 -21 -15 0
-30 -7 -33 -15 -4 -8 -19 -15 -35 -15 -17 0 -32 -7 -38 -19 -7 -13 -18 -17
-35 -14 -17 4 -28 -1 -36 -14 -9 -14 -21 -18 -41 -15 -20 3 -31 -1 -35 -12 -4
-11 -13 -14 -29 -10 -15 4 -30 -1 -42 -13 -11 -11 -29 -17 -46 -15 -17 2 -29
-2 -33 -12 -4 -10 -14 -13 -33 -10 -18 4 -32 0 -40 -10 -9 -10 -22 -14 -38
-10 -16 4 -30 0 -43 -11 -32 -29 -24 -1 23 80 26 47 48 74 59 75 10 0 23 9 30
19 9 14 19 18 39 14 20 -4 30 1 41 16 9 13 21 19 31 15 19 -7 57 12 57 30 0 8
10 11 29 8 22 -3 32 1 40 17 6 11 17 18 25 15 19 -7 56 13 56 30 0 8 10 11 29
8 23 -3 32 1 43 19 8 15 22 24 38 24 14 0 29 8 35 20 6 12 20 20 35 20 16 0
28 8 35 22 7 16 15 21 31 17 17 -4 27 1 39 20 11 16 27 26 41 26 16 0 28 8 35
24 8 16 17 22 29 19 12 -3 24 4 35 21 10 14 26 26 36 26 19 0 52 38 44 51 -3
4 4 5 15 2 24 -6 50 13 50 37 0 13 6 17 19 13 20 -5 51 20 51 42 0 8 12 15 28
17 19 2 28 9 30 26 2 14 10 22 22 22 24 0 53 29 46 46 -4 9 2 14 17 14 27 0
47 17 47 40 0 19 42 20 48 2z"/>
<path d="M18365 3071 c-194 -31 -304 -101 -363 -230 -38 -81 -44 -241 -13
-334 54 -162 145 -235 406 -327 146 -51 203 -82 211 -116 24 -96 -212 -125
-428 -54 -127 42 -129 41 -185 -112 -24 -63 -43 -124 -43 -135 0 -90 371 -179
632 -152 169 17 270 58 353 144 88 90 121 188 112 338 -11 196 -109 297 -392
402 -141 52 -225 95 -237 121 -15 32 -3 69 27 82 37 17 218 14 300 -4 115 -27
134 -28 154 -10 10 9 38 66 61 127 41 103 43 113 29 138 -19 35 -103 75 -214
102 -99 23 -320 34 -410 20z"/>
<path d="M8591 3048 c-14 -7 -28 -27 -33 -45 -5 -18 -7 -325 -6 -682 3 -622 4
-650 22 -670 18 -20 29 -21 201 -21 164 0 184 2 198 18 14 16 17 44 17 189 l0
171 173 5 c118 3 191 10 232 22 241 68 344 216 345 496 0 120 -24 236 -64 304
-55 93 -156 160 -298 196 -74 19 -118 22 -423 26 -265 3 -345 1 -364 -9z m628
-371 c19 -7 43 -24 54 -39 29 -38 34 -126 12 -183 -24 -64 -55 -77 -187 -83
l-108 -5 0 162 0 161 98 -1 c53 0 112 -5 131 -12z"/>
<path d="M10195 3051 c-12 -5 -26 -16 -33 -24 -15 -18 -442 -1319 -442 -1347
0 -46 20 -50 220 -50 223 0 218 -2 250 110 12 41 24 83 26 93 5 16 21 17 196
15 l191 -3 24 -85 c39 -134 31 -130 259 -130 206 0 217 3 216 53 0 12 -95 315
-212 672 -158 484 -218 656 -236 675 -24 25 -25 25 -232 27 -114 1 -216 -2
-227 -6z m310 -753 l24 -88 -120 0 c-110 0 -120 2 -115 18 3 9 26 87 51 172
76 257 63 244 102 105 18 -66 44 -159 58 -207z"/>
<path d="M11260 3047 c-16 -8 -27 -25 -32 -52 -5 -21 -7 -328 -6 -681 3 -615
4 -643 22 -663 19 -21 24 -21 461 -21 418 0 443 1 459 19 14 16 16 40 14 182
-3 163 -3 163 -28 176 -18 9 -89 13 -252 13 l-228 0 0 495 0 496 -25 24 c-24
25 -27 25 -192 25 -114 0 -176 -4 -193 -13z"/>
<path d="M12392 3050 c-12 -5 -27 -21 -32 -36 -7 -17 -9 -263 -8 -691 3 -645
4 -665 22 -679 15 -11 60 -14 197 -14 152 0 178 2 190 17 11 13 15 88 19 355
l5 339 128 -215 c70 -119 137 -221 148 -227 48 -25 63 -9 201 224 l133 222 3
-339 c2 -299 4 -342 19 -358 14 -16 35 -18 193 -18 159 0 179 2 193 18 16 17
17 79 17 693 0 567 -2 678 -14 695 -13 17 -30 19 -174 22 -122 3 -167 0 -193
-11 -30 -13 -54 -48 -188 -281 -85 -147 -157 -269 -160 -271 -4 -2 -75 115
-159 260 -84 145 -162 271 -174 282 -17 16 -40 18 -182 20 -88 1 -171 -2 -184
-7z"/>
<path d="M14413 3046 c-31 -14 -34 -22 -203 -538 -94 -288 -194 -592 -222
-676 -48 -146 -49 -154 -34 -177 l16 -25 189 0 c232 0 227 -3 261 130 l24 90
191 0 192 0 26 -92 c38 -132 30 -128 257 -128 168 0 189 2 203 18 10 10 17 25
17 33 0 35 -433 1336 -451 1354 -18 19 -34 20 -227 22 -161 2 -214 0 -239 -11z
m286 -637 c28 -102 51 -189 51 -192 0 -10 -230 -9 -230 1 -2 23 116 399 121
389 4 -6 30 -96 58 -198z"/>
<path d="M15476 3036 l-26 -25 0 -668 c0 -589 2 -671 16 -691 15 -21 20 -22
200 -22 243 0 224 -19 224 230 l0 190 49 0 50 0 106 -187 c58 -104 117 -198
131 -211 25 -22 30 -22 217 -20 l192 3 9 27 c9 24 -3 48 -117 236 -70 115
-127 212 -127 215 0 3 22 19 49 37 134 86 201 218 201 400 0 216 -79 362 -235
436 -125 60 -172 65 -562 71 l-352 5 -25 -26z m653 -359 c54 -19 76 -57 76
-131 0 -116 -43 -146 -210 -146 l-105 0 0 145 0 145 103 -1 c56 0 117 -5 136
-12z"/>
<path d="M16850 3047 l-25 -13 -3 -683 c-2 -626 -1 -686 14 -703 16 -17 44
-18 481 -18 450 0 464 1 483 20 18 18 20 33 20 158 0 199 28 182 -301 182
l-269 0 0 95 0 95 243 0 c225 0 245 1 261 19 14 16 16 39 14 162 -3 142 -3
144 -28 156 -18 9 -90 13 -257 13 l-233 0 0 80 0 80 254 0 c326 0 301 -15 301
184 0 126 -2 148 -18 163 -16 17 -51 18 -465 21 -348 1 -453 -1 -472 -11z"/>
<path d="M6035 2760 c-9 -56 -15 -103 -13 -106 8 -7 297 -58 302 -53 12 12 39
200 30 208 -5 5 -22 11 -39 13 -28 3 -30 1 -40 -52 -7 -40 -15 -56 -28 -58
-16 -3 -18 2 -11 56 l6 59 -33 7 c-38 7 -45 0 -54 -61 -4 -28 -11 -43 -21 -43
-12 0 -14 13 -12 63 l3 62 -36 3 -36 3 -18 -101z"/>
<path d="M1187 2825 c-81 -28 -118 -96 -97 -177 13 -47 35 -88 49 -88 5 0 20
9 34 20 25 20 25 22 11 56 -19 46 -10 73 32 90 69 29 106 10 110 -57 2 -40 5
-45 34 -53 40 -12 50 1 50 64 -1 127 -98 190 -223 145z"/>
<path d="M1296 2501 c-77 -26 -141 -52 -143 -58 -7 -19 26 -85 39 -81 7 3 72
24 143 48 72 23 132 44 134 46 6 5 -18 82 -27 87 -4 2 -70 -17 -146 -42z"/>
<path d="M6018 2534 c-30 -16 -56 -60 -83 -143 -15 -45 -15 -55 -4 -62 31 -20
279 -97 284 -88 19 29 45 129 45 168 0 60 -20 87 -84 117 -58 27 -118 30 -158
8z m118 -100 c27 -13 34 -22 34 -45 0 -34 -8 -35 -76 -13 -65 22 -71 29 -49
54 22 24 46 25 91 4z"/>
<path d="M1358 2312 c-64 -32 -122 -62 -129 -69 -15 -15 56 -149 94 -177 82
-60 247 24 247 126 0 53 -56 178 -79 177 -9 0 -69 -26 -133 -57z m118 -87 c8
-31 -9 -53 -54 -72 -30 -12 -37 -12 -58 2 -13 8 -24 20 -24 25 0 9 105 68 122
70 4 0 10 -11 14 -25z"/>
<path d="M5826 2176 c-14 -25 -26 -47 -26 -49 0 -11 202 -242 211 -242 6 0 20
17 32 38 20 35 20 38 4 54 -15 15 -15 19 5 54 18 33 25 37 48 33 23 -5 30 0
49 32 12 20 18 40 14 45 -6 6 -291 79 -308 79 -2 0 -15 -20 -29 -44z m161 -76
c6 0 2 -16 -6 -29 -8 -12 -12 -13 -26 -1 -9 7 -20 21 -26 31 -8 16 -6 17 23 8
18 -5 34 -9 35 -9z"/>
<path d="M1528 1987 c-82 -28 -148 -56 -148 -62 0 -6 13 -25 30 -43 25 -27 33
-31 49 -22 16 8 24 5 45 -22 23 -29 24 -35 11 -54 -12 -19 -11 -25 11 -55 14
-19 30 -34 36 -34 6 0 51 58 101 128 l89 129 -30 41 c-16 23 -33 42 -38 43 -5
2 -75 -20 -156 -49z m82 -87 c-18 -25 -25 -28 -36 -19 -21 17 -17 26 14 37 42
16 45 14 22 -18z"/>
<path d="M5695 1950 c-22 -8 -135 -126 -135 -140 0 -4 44 -45 98 -91 53 -45
105 -89 116 -98 17 -15 21 -13 67 39 27 30 56 74 65 97 16 41 16 44 -7 90 -41
83 -136 131 -204 103z m92 -124 c34 -31 36 -36 25 -60 -6 -14 -15 -26 -19 -26
-5 0 -30 20 -58 44 -43 38 -48 46 -36 60 21 25 48 19 88 -18z"/>
<path d="M1732 1722 l-101 -109 57 -55 c67 -66 89 -78 136 -78 77 0 177 119
161 192 -8 33 -118 158 -140 158 -6 0 -57 -49 -113 -108z m158 -62 c0 -27 -55
-80 -82 -80 -50 0 -50 21 0 75 43 46 49 50 65 37 9 -9 17 -23 17 -32z"/>
<path d="M5413 1676 c-86 -65 -99 -81 -82 -103 55 -71 182 -213 189 -213 6 0
24 13 41 28 l31 28 -26 31 c-24 28 -34 53 -21 53 3 0 22 -7 42 -15 47 -20 65
-19 97 6 37 29 32 43 -21 60 -46 14 -47 15 -48 58 -1 37 -7 49 -38 77 -52 48
-89 46 -164 -10z m107 -81 c0 -6 -9 -20 -20 -30 -20 -18 -21 -18 -35 1 -19 26
-19 30 7 48 23 16 48 6 48 -19z"/>
<path d="M2005 1485 c-47 -63 -85 -120 -84 -127 0 -11 133 -115 161 -126 10
-5 47 39 48 55 0 6 -20 26 -44 44 -27 19 -42 37 -39 45 7 20 14 18 62 -18 l43
-31 19 24 c26 34 24 43 -18 75 -21 15 -40 29 -42 31 -3 2 0 8 6 14 8 8 24 2
58 -22 l47 -34 24 28 c13 16 24 31 24 35 -1 10 -155 122 -169 122 -6 0 -49
-52 -96 -115z"/>
<path d="M5156 1490 c-57 -37 -77 -55 -74 -68 3 -9 39 -70 82 -135 74 -115 77
-118 99 -105 12 8 52 34 90 57 37 24 67 47 67 52 0 15 -31 59 -41 59 -5 0 -27
-12 -49 -26 -36 -24 -70 -27 -70 -7 0 5 20 20 45 35 25 15 45 31 45 35 0 5 -9
19 -20 33 l-20 25 -49 -27 c-45 -25 -61 -27 -61 -7 0 4 20 20 45 36 47 29 54
46 31 76 -20 26 -34 22 -120 -33z"/>
<path d="M2363 1263 c-80 -171 -77 -160 -43 -178 49 -25 59 -20 90 48 l28 62
7 -50 c10 -66 12 -69 43 -49 82 53 78 54 43 -14 -17 -34 -31 -66 -31 -72 0
-10 58 -40 78 -40 4 0 37 61 72 136 62 132 63 137 44 151 -39 29 -63 27 -118
-10 -62 -41 -66 -38 -66 44 0 45 -3 51 -32 69 -18 11 -39 20 -46 20 -7 0 -38
-53 -69 -117z"/>
<path d="M4925 1356 c-41 -13 -121 -51 -142 -68 -8 -6 5 -44 49 -136 33 -70
65 -132 70 -139 12 -15 137 44 181 85 36 35 38 92 2 127 -13 14 -29 25 -35 25
-6 0 -10 8 -9 18 3 34 -1 50 -18 70 -25 28 -51 33 -98 18z m31 -88 c4 -6 -3
-19 -16 -30 -23 -19 -25 -19 -37 -1 -12 15 -11 20 4 30 21 16 40 17 49 1z m52
-114 c2 -14 -6 -24 -23 -32 -23 -11 -27 -9 -34 11 -7 17 -4 25 13 34 27 16 40
12 44 -13z"/>
<path d="M2850 1270 c-15 -28 -3 -43 30 -36 18 3 33 0 40 -9 19 -23 66 -35 85
-21 27 20 15 51 -19 49 -16 -1 -40 6 -54 17 -32 26 -68 25 -82 0z"/>
<path d="M4628 1227 c-16 -6 -28 -18 -28 -26 0 -16 95 -269 104 -279 6 -5 66
16 80 29 5 5 -14 69 -44 148 -56 149 -56 150 -112 128z"/>
<path d="M2771 1079 c-51 -73 -89 -135 -84 -139 4 -4 23 -12 42 -19 30 -10 37
-9 56 9 18 17 25 18 57 8 28 -8 38 -17 40 -36 2 -19 12 -28 42 -39 22 -7 44
-9 48 -5 5 5 6 79 2 166 l-7 156 -50 15 c-28 8 -51 15 -52 15 0 0 -43 -59 -94
-131z m116 -65 c-2 -3 -14 -1 -25 3 l-21 8 22 35 22 35 3 -39 c2 -21 1 -40 -1
-42z"/>
<path d="M4343 1143 c-14 -3 -23 -12 -23 -22 0 -20 66 -281 73 -288 6 -5 168
36 186 47 10 5 12 19 7 45 -7 37 -8 37 -44 31 -20 -3 -46 -9 -58 -12 -18 -5
-22 1 -34 53 -7 32 -19 79 -27 105 -14 50 -20 53 -80 41z"/>
<path d="M3117 1053 c-43 -195 -49 -225 -41 -233 14 -13 197 -51 205 -43 4 5
10 22 14 40 7 34 5 36 -68 49 -40 7 -55 20 -40 35 6 6 27 6 58 -1 26 -6 49 -9
52 -7 2 3 6 20 10 40 l5 35 -55 12 c-42 8 -55 15 -50 26 6 17 11 17 70 3 51
-13 63 -5 63 43 0 21 -6 29 -22 33 -13 2 -54 11 -91 20 -38 8 -74 15 -82 15
-8 0 -19 -25 -28 -67z"/>
<path d="M3958 1083 c-16 -2 -28 -6 -28 -8 0 -3 -13 -66 -30 -142 -39 -177
-39 -173 8 -173 44 0 58 8 63 35 3 16 13 21 46 23 34 3 42 0 48 -17 5 -16 15
-21 43 -21 72 0 72 5 1 162 -70 156 -69 154 -151 141z m55 -130 c2 -10 8 -26
12 -35 6 -15 2 -18 -20 -18 -21 0 -26 4 -21 16 3 9 6 24 6 35 0 24 16 25 23 2z"/>
<path d="M3522 1057 c-10 -12 -12 -49 -6 -161 l7 -146 76 0 c131 0 186 45 186
153 -1 118 -40 156 -166 164 -69 5 -87 3 -97 -10z m148 -92 c17 -21 18 -89 1
-109 -7 -9 -22 -16 -32 -16 -17 0 -19 8 -19 70 0 62 2 70 19 70 10 0 24 -7 31
-15z"/>
<path d="M5260 964 c-36 -24 -66 -49 -68 -54 -4 -12 127 -200 140 -200 22 0
137 85 138 101 0 9 -7 22 -15 29 -16 13 -36 8 -77 -22 -13 -9 -20 -10 -28 -2
-8 8 -2 17 24 34 39 24 43 36 22 65 -14 19 -15 19 -52 -8 -25 -17 -42 -23 -48
-17 -5 5 -8 11 -5 13 79 56 80 57 63 82 -9 14 -19 25 -23 25 -3 0 -35 -21 -71
-46z"/>
<path d="M2170 793 c-69 -121 -71 -111 32 -168 l67 -36 15 30 16 30 -40 22
c-22 13 -40 29 -40 36 0 18 9 16 48 -7 35 -22 46 -20 62 10 9 17 4 23 -30 46
-50 33 -42 51 10 24 50 -25 54 -25 68 5 10 21 8 26 -16 43 -34 23 -119 72
-125 72 -3 0 -33 -48 -67 -107z"/>
<path d="M5055 827 c-46 -19 -115 -57 -115 -64 0 -16 116 -213 126 -213 22 0
104 52 129 81 30 36 31 60 6 114 -34 75 -88 105 -146 82z m55 -89 c24 -26 24
-81 0 -86 -18 -3 -66 81 -55 97 10 17 33 13 55 -11z"/>
<path d="M2509 683 c-53 -124 -71 -175 -63 -183 17 -16 115 -50 145 -50 62 0
130 106 113 175 -3 14 -18 34 -32 45 -29 24 -108 60 -129 60 -7 0 -23 -21 -34
-47z m99 -55 c29 -29 -1 -98 -44 -98 -29 0 -29 -1 -3 61 23 52 28 56 47 37z"/>
<path d="M4771 694 l-34 -14 7 -128 c4 -70 10 -130 14 -133 4 -4 22 0 40 7 23
10 32 21 32 37 0 32 51 52 74 29 14 -14 19 -14 51 1 25 12 34 21 28 31 -18 30
-159 186 -168 186 -5 -1 -25 -7 -44 -16z m67 -135 c-15 -9 -28 8 -28 36 1 19
2 18 21 -4 15 -19 17 -26 7 -32z"/>
<path d="M2798 538 c-97 -132 -101 -138 -86 -143 7 -2 26 -9 41 -15 22 -8 29
-7 33 5 6 16 41 20 60 7 7 -4 13 -16 15 -26 4 -19 71 -50 83 -39 8 8 8 91 0
186 -7 73 -8 76 -37 87 -16 5 -36 10 -43 10 -7 0 -37 -33 -66 -72z m72 -53 c0
-16 -6 -25 -15 -25 -18 0 -18 5 -5 31 14 26 20 24 20 -6z"/>
<path d="M4477 591 c-32 -11 -61 -21 -63 -24 -5 -4 64 -227 72 -236 2 -2 31 4
65 14 81 25 119 61 119 112 0 42 -28 111 -53 131 -26 22 -79 23 -140 3z m99
-96 c7 -19 14 -36 14 -39 0 -8 -31 -36 -40 -36 -7 0 -40 89 -40 107 0 2 11 3
26 3 19 0 28 -8 40 -35z"/>
<path d="M3165 527 c-13 -42 -43 -233 -37 -239 4 -3 22 -8 41 -10 l35 -3 22
120 c12 66 19 123 15 126 -14 14 -72 19 -76 6z"/>
<path d="M4210 531 c-17 -5 -24 -14 -23 -27 5 -53 36 -210 44 -218 11 -12 160
14 165 29 3 6 0 23 -5 37 -9 24 -13 26 -48 18 -20 -5 -40 -7 -43 -4 -3 3 -12
42 -21 87 -16 86 -21 92 -69 78z"/>
<path d="M3381 497 c-46 -16 -73 -55 -79 -115 -9 -96 49 -149 155 -140 29 3
56 7 59 11 3 3 7 36 7 74 l2 68 -47 3 c-40 3 -47 0 -53 -19 -5 -15 -2 -26 9
-34 21 -16 20 -35 -2 -35 -28 0 -42 21 -42 61 0 50 19 63 79 55 50 -7 61 1 61
39 0 28 -100 50 -149 32z"/>
<path d="M3985 501 c-28 -6 -31 -11 -52 -96 -12 -50 -25 -107 -28 -127 l-7
-38 41 0 c29 0 41 4 41 15 0 8 9 19 19 25 28 14 61 12 61 -4 0 -8 6 -16 13
-19 17 -6 77 4 77 13 0 8 -90 207 -103 228 -9 13 -15 13 -62 3z m42 -135 c-9
-26 -27 -15 -27 16 1 31 1 32 15 13 9 -10 14 -24 12 -29z"/>
<path d="M3607 483 c-13 -12 -7 -163 7 -198 18 -41 42 -55 98 -55 92 0 116 38
110 178 l-4 82 -38 0 -39 0 -3 -92 c-3 -85 -5 -93 -23 -93 -18 0 -20 8 -23 70
-3 107 -7 115 -46 115 -18 0 -36 -3 -39 -7z"/>
</g>
</svg>
